<svg width="620" height="620" viewBox="0 0 620 620" fill="none" xmlns="http://www.w3.org/2000/svg">
<g clip-path="url(#clip0_9883_1059)">
<path d="M596 333.74C596 404.987 569.999 470.145 526.963 520.24C524.135 523.589 521.147 526.92 518.159 530.09C505.06 544.042 490.529 556.633 474.782 567.684C467.767 572.735 460.413 577.445 452.879 581.815C452.378 582.066 451.859 582.406 451.34 582.675C449.551 583.696 447.743 584.735 445.865 585.755H445.775C445.775 585.755 445.596 585.935 445.525 585.935C417.466 601.087 386.58 611.618 353.904 616.579C353.815 616.579 353.654 616.579 353.564 616.669C353.135 616.669 352.616 616.758 352.204 616.848C352.025 616.848 351.954 616.937 351.775 616.937C341.593 618.478 331.16 619.427 320.638 619.857C317.131 619.946 313.534 620.036 310.027 620.036C287.873 620.036 266.221 617.475 245.427 612.675C244.318 612.424 243.209 612.155 242.01 611.904C234.064 609.934 226.173 607.714 218.478 605.063C166.029 587.332 120.434 554.807 86.5594 512.413C85.611 511.213 84.591 510.013 83.6605 508.723C46.243 460.312 24 399.596 24 333.74C24 225.168 84.4836 130.638 173.455 82.0828C180.649 78.2321 188.004 74.6321 195.609 71.3724C209.298 65.3009 223.578 60.4114 238.305 56.5606C253.695 52.6204 269.621 49.8801 285.959 48.5189C293.922 47.8383 301.867 47.498 309.991 47.498C316.827 47.498 323.68 47.7488 330.445 48.2682C334.471 48.5189 338.479 48.9488 342.505 49.3786C363.728 51.689 384.254 56.489 403.759 63.2591C439.44 75.6709 471.937 94.9424 499.584 119.426C558.69 171.831 596 248.469 596 333.758V333.74Z" fill="url(#paint0_linear_9883_1059)"/>
<path d="M435.056 407.316C404.295 276.374 485.752 -0.161122 295.586 7.04389e-05C169.197 0.107532 171.63 171.742 171.63 277.753C161.484 444.676 324.02 351.901 435.056 407.316Z" fill="black"/>
<path d="M288.41 217.019L248.469 219.974L257.113 323.764L198.472 352.474L259.922 357.615C259.922 357.615 315.664 403.823 370.922 361.698C390.212 346.994 322.857 317.406 322.857 317.406L288.41 217.001V217.019Z" fill="#FDCBB2"/>
<path d="M251.315 233.138L305.195 265.932L315.664 296.415L259.636 271.735L251.315 233.138Z" fill="#EAB7A0"/>
<path d="M205.039 197.318C198.096 174.5 207.24 144.626 231.148 157.843C264.575 156.625 222.576 50.4713 305.678 44.5072C400.09 28.7999 424.767 212.882 351.238 272.738C307.289 278.254 263.859 259.699 243.155 227.443C227.891 224.308 211.302 218.774 205.021 197.336L205.039 197.318Z" fill="#FDCBB2"/>
<path d="M283.525 149.873C286.979 144.034 292.24 139.449 298.306 137.246C304.3 134.99 311.154 135.402 316.182 138.554C310.51 136.745 304.569 138.07 300.203 141.079C295.765 144.088 292.723 148.637 291.309 153.402L283.525 149.855V149.873Z" fill="#001848"/>
<path d="M317.721 149.336C317.041 136.566 301.992 137.515 302.941 150.285C303.621 163.055 318.67 162.106 317.721 149.336Z" fill="black"/>
<path d="M382.786 139.933C380.317 136.458 376.487 133.557 371.996 132.894C367.522 132.106 362.53 134.327 359.237 138.446C361.223 133.682 365.876 129.312 371.96 128.614C377.937 127.826 384.057 130.082 388.87 133.897L382.804 139.933H382.786Z" fill="#001848"/>
<path d="M380.156 143.354C376.827 130.154 367.54 137.211 370.457 147.957C373.785 161.157 383.073 154.1 380.156 143.354Z" fill="black"/>
<path d="M338.73 132.59C348.983 180.625 373.857 176.112 373.857 176.112C366.073 189.24 346.532 201.061 346.532 201.061L338.73 132.59Z" fill="#EAB7A0"/>
<path d="M312.407 202.01C320.925 207.061 328.762 211.932 337.28 215.013C341.468 216.607 345.798 217.717 350.003 217.789C354.191 217.914 358.271 216.302 361.134 212.058C361.008 217.072 356.087 222.141 350.594 222.75C345.19 223.825 339.875 222.732 335.061 221.013C325.488 217.359 317.364 210.625 312.407 201.974V202.01Z" fill="#CA807A"/>
<path d="M270.838 121.002C271.822 115.808 327.098 105.205 331.142 118.781C325.058 85.5575 272.251 111.187 270.838 121.002Z" fill="black"/>
<path d="M390.624 119.748C390.857 107.892 355.783 110.757 353.69 114.035C363.603 101.802 396.279 95.7484 390.624 119.748Z" fill="black"/>
<path d="M231.917 190.727C231.022 183.867 229.108 179.658 226.584 175.109C225.475 172.78 223.793 170.649 222.379 168.124C220.787 165.706 219.105 163.181 217.619 159.921C221.127 160.243 224.276 161.515 227.085 163.378C229.841 165.33 232.311 167.801 234.064 170.936C235.711 174.07 236.802 177.688 236.48 181.36C236.23 184.942 234.816 188.577 231.917 190.727Z" fill="#CA807A"/>
<path d="M445.775 585.756C445.775 585.756 445.596 585.935 445.524 585.935C417.466 601.087 386.58 611.618 353.904 616.579C353.815 616.579 353.654 616.579 353.564 616.669C353.135 616.669 352.616 616.758 352.204 616.848C352.025 616.848 351.954 616.937 351.775 616.937C341.593 618.478 331.16 619.427 320.638 619.857C317.131 619.946 313.534 620.036 310.027 620.036C287.873 620.036 266.221 617.475 245.427 612.675C244.318 612.424 243.208 612.155 242.009 611.905C241.759 610.275 241.491 608.645 241.24 607.015C231.237 546.138 194.786 426.247 176.659 396.193V396.104C175.03 393.453 173.581 391.483 172.292 390.372L175.281 388.062L201.281 367.68L211.803 359.459L212.573 358.868L212.823 358.689L218.55 354.229L232.919 342.928L239.594 337.698C240.703 339.149 242.153 340.6 244.211 342.068H244.3C264.235 357.059 325.577 373.501 326.257 376.743C333.791 367.161 350.468 369.543 361.169 358.6C364.158 355.519 366.645 351.4 368.363 345.758C368.363 345.758 368.882 346.009 369.741 346.528C369.741 346.528 369.83 346.618 369.92 346.618C374.966 349.447 392.163 358.6 410.558 364.85C415.694 366.57 420.991 368.11 426.127 369.131C427.147 369.382 428.274 369.561 429.384 369.722C434.179 370.581 438.707 370.922 442.983 370.743C439.047 379.483 435.879 388.814 433.32 398.486V398.575C432.712 400.886 432.121 403.196 431.603 405.596C431.424 406.545 431.173 407.477 431.012 408.515C427.505 425.047 425.715 442.509 425.357 460.061C425.017 472.222 425.447 484.294 426.467 496.186C429.115 529.589 436.219 561.004 445.202 584.215C445.381 584.735 445.632 585.236 445.811 585.756H445.775Z" fill="white"/>
<path d="M352.186 616.83C352.007 616.83 351.936 616.919 351.757 616.919C341.575 618.46 331.142 619.409 320.62 619.839C317.113 619.928 313.516 620.018 310.009 620.018C287.855 620.018 266.203 617.457 245.41 612.657C244.3 612.406 243.191 612.137 241.992 611.887C234.046 609.917 226.155 607.696 218.46 605.045C217.691 601.875 216.492 598.454 215.132 594.854C209.316 579.791 199.385 561.881 192.8 546.048C190.742 535.177 188.433 521.565 185.874 506.574C177.482 455.96 167.747 389.781 163.631 362.289C165.081 360.659 167.3 359.298 170.217 358.188C174.493 356.397 180.13 355.017 186.805 353.298C193.569 351.668 201.264 349.698 209.388 347.137H209.477C210.336 346.797 211.177 346.546 212.036 346.188C212.215 346.188 212.376 346.098 212.555 346.098V346.009C219.14 343.788 225.994 340.958 232.74 337.358C232.651 339.077 232.651 340.868 232.901 342.928C233.331 346.618 234.279 350.898 235.639 355.608C238.037 363.579 241.634 372.91 246.161 383.101C261.64 418.044 287.48 462.569 306.645 496.724C306.645 496.813 306.734 496.813 306.734 496.813C308.953 500.753 311.101 504.515 313.158 508.114V508.204C314.017 509.834 314.858 511.464 315.717 513.004C319.225 519.255 322.303 524.986 324.79 529.875C324.969 530.216 325.13 530.646 325.309 530.986V531.075C325.559 531.416 325.738 531.666 325.828 532.025V532.114C328.566 537.416 330.445 541.625 331.393 544.526C331.393 544.616 331.482 544.777 331.482 544.866C331.661 545.207 331.733 545.547 331.822 545.887C333.791 552.729 343.203 585.182 352.186 616.866V616.83Z" fill="black"/>
<path d="M242.94 323.764L212.573 336.266V380.217L236.337 373.734L222.666 396.838C222.666 396.838 235.621 429.256 264.431 463.858C276.421 478.258 323.484 574.866 323.484 574.866C323.484 574.866 312.514 498.712 294.047 463.285C269.066 409.984 241.562 361.429 242.958 323.764H242.94Z" fill="black"/>
<path d="M474.782 567.684C467.767 572.735 460.413 577.445 452.879 581.815C452.378 582.066 451.859 582.406 451.34 582.675C449.551 583.696 447.743 584.735 445.865 585.756H445.775C445.775 585.756 445.596 585.935 445.525 585.935C417.466 601.087 386.58 611.618 353.904 616.579C353.815 616.579 353.654 616.579 353.564 616.669C353.135 616.669 352.616 616.758 352.204 616.848C352.025 616.848 351.954 616.937 351.775 616.937C341.593 618.478 331.16 619.427 320.638 619.857C318.67 604.185 315.932 584.663 312.425 558.55C312.335 557.78 312.246 557.01 312.085 556.15V555.899C311.924 554.108 311.655 552.389 311.405 550.508V550.419C310.635 544.938 309.866 539.207 309.096 533.117C309.526 530.896 310.886 526.526 313.033 520.616C313.803 518.305 314.733 515.744 315.771 513.004C326.561 483.721 347.677 430.366 360.167 388.241C362.655 379.931 364.784 372.229 366.323 365.119V365.029C367.952 358.188 369.15 351.937 369.741 346.528V346.438C370.421 340.188 370.332 335.137 369.312 331.627L369.401 331.716C386.508 338.218 399.768 342.767 410.129 346.009C415.873 347.889 420.741 349.34 424.838 350.63C425.948 350.97 427.057 351.31 428.095 351.65C434.859 353.8 439.566 355.412 443.234 357.471C443.234 357.471 475.838 509.547 474.8 524.449C474.031 534.299 472.402 550.472 474.8 567.684H474.782Z" fill="black"/>
<path d="M344.116 327.4L409.914 338.432L410.791 374.558L380.764 371.961L396.135 405.56C396.135 405.56 401.092 407.423 372.103 446.557C360.955 461.816 311.619 560.072 311.619 560.072C287.122 500.717 403.383 354.337 344.116 327.382V327.4Z" fill="black"/>
<path d="M426.091 369.113C425.322 361.752 424.892 355.501 424.803 350.612C425.751 350.612 426.771 350.701 427.97 350.791C444.648 352.421 487.684 366.892 502.733 432.479C507.44 452.682 517.192 485.816 526.945 520.24C524.117 523.589 521.129 526.92 518.141 530.09C505.042 544.043 490.511 556.633 474.764 567.684C467.75 572.735 460.395 577.445 452.861 581.815C449.694 534.031 438.224 461.763 430.958 408.515C430.779 407.316 430.618 406.205 430.439 405.095C428.65 391.483 427.093 379.232 426.073 369.131L426.091 369.113Z" fill="black"/>
<path d="M246.268 609.29C246.018 610.4 245.678 611.511 245.41 612.621C244.3 612.37 243.191 612.102 241.992 611.851C234.046 609.881 226.155 607.66 218.46 605.009C166.011 587.278 120.416 554.753 86.5415 512.359C100.052 483.416 115.119 452.933 124.693 429.22C146.936 374.593 157.118 353.961 170.127 357.883C170.127 357.883 170.127 357.973 170.217 358.134C170.557 360.104 172.614 371.835 175.263 388.026C175.692 390.587 176.211 393.328 176.641 396.068V396.157C183.315 437.512 191.958 498.479 186.304 506.019C186.125 506.198 186.053 506.359 185.874 506.538C175.961 522.138 166.405 540.568 161.734 543.075L215.132 594.818L241.222 606.979L246.268 609.29Z" fill="black"/>
<path d="M451.34 582.657C449.551 583.678 447.743 584.717 445.865 585.738H445.775C445.775 585.738 445.596 585.917 445.525 585.917L445.185 584.197L438.689 555.774C434.323 536.001 430.135 516.121 426.449 496.168C426.359 495.649 426.27 495.219 426.198 494.718C422.602 474.246 419.703 453.703 417.985 432.981C417.126 421.93 416.607 410.808 416.875 399.668V399.578C417.054 389.907 417.895 380.307 419.792 370.814C418.593 380.665 418.414 390.426 418.772 400.277V400.366C419.112 411.148 420.222 421.948 421.421 432.569C422.53 441.811 423.818 450.981 425.357 460.061C427.236 471.363 429.384 482.575 431.603 493.715C435.539 514.007 440.067 534.21 444.773 554.431L451.358 582.693L451.34 582.657Z" fill="#414042"/>
<path d="M212.287 336.48C212.716 351.131 212.949 365.782 213.002 380.432L212.108 379.752L235.818 373.071L238.001 372.462L236.856 374.414C232.329 382.134 227.944 389.925 223.256 397.555L223.328 396.677C228.374 408.766 234.673 420.408 241.544 431.638C248.523 442.814 256.021 453.667 264.163 464.073C255.484 454.133 247.467 443.548 240.399 432.354C233.313 421.178 226.799 409.644 221.467 397.429L221.27 396.999L221.52 396.552C225.958 388.778 230.682 381.185 235.281 373.501L236.301 374.844L212.483 381.131L211.589 381.364V380.432C211.642 365.782 211.893 351.131 212.305 336.48H212.287Z" fill="#414042"/>
<path d="M409.771 373.376L379.69 371.298L380.191 370.564L395.778 404.074L395.366 403.698C396.511 404.665 396.064 405.202 396.153 405.739C396.153 406.295 395.974 406.742 395.885 407.244C395.617 408.175 395.294 409.071 394.919 409.93C394.203 411.668 393.344 413.333 392.467 414.963C390.678 418.223 388.781 421.393 386.777 424.509C382.786 430.724 378.563 436.796 374.233 442.778C365.804 454.67 359.022 467.87 351.9 480.73L310.599 558.908C323.305 532.293 336.672 506.037 350.361 479.906C357.447 466.993 363.693 453.56 372.604 441.596C376.988 435.685 381.265 429.703 385.291 423.578C387.313 420.515 389.246 417.399 391.036 414.211C391.912 412.617 392.771 410.987 393.469 409.339C393.845 408.515 394.131 407.674 394.4 406.85C394.74 406.187 394.471 404.79 394.829 405.095L394.418 404.701L379.261 371.011L378.885 370.188L379.762 370.277L409.753 373.393L409.771 373.376Z" fill="#414042"/>
<path d="M353.546 616.651C353.117 616.651 352.598 616.74 352.186 616.83C352.007 616.83 351.936 616.92 351.757 616.92C349.789 610.418 347.82 603.827 345.852 597.308C340.805 579.845 335.849 562.454 331.482 544.813C331.661 545.153 331.733 545.493 331.822 545.834C337.728 562.616 342.774 579.648 347.91 596.699C349.789 603.379 351.757 609.97 353.546 616.651Z" fill="#414042"/>
</g>
<defs>
<linearGradient id="paint0_linear_9883_1059" x1="310" y1="47.498" x2="310" y2="620.036" gradientUnits="userSpaceOnUse">
<stop offset="0.9999" stop-color="#477FA3"/>
<stop offset="1" stop-color="#477FA3" stop-opacity="0"/>
</linearGradient>
<clipPath id="clip0_9883_1059">
<rect width="620" height="620" fill="white"/>
</clipPath>
</defs>
</svg>
