<svg width="692" height="692" viewBox="0 0 692 692" fill="none" xmlns="http://www.w3.org/2000/svg">
<path d="M632 406.28C632 494.822 591.701 573.872 528.569 626.268C479.037 667.295 415.386 691.982 346.009 691.982C270.816 691.982 202.28 662.915 151.209 615.488C95.0734 563.361 60 488.923 60 406.28C60 293.372 125.619 195.694 220.836 149.376C231.537 144.085 242.65 139.544 254.12 135.701C266.02 131.607 278.242 128.353 290.822 125.869H291.162C308.949 122.365 327.273 120.577 346.009 120.577C354.992 120.577 363.886 121.006 372.708 121.864C404.363 124.76 434.48 132.805 462.27 145.193C462.61 145.372 463.039 145.533 463.379 145.622L464.399 146.141C563.213 191.1 632 290.744 632 406.298V406.28Z" fill="url(#paint0_linear_9883_920)"/>
<path d="M528.569 626.268C479.037 667.295 415.386 691.982 346.009 691.982C270.816 691.982 202.28 662.915 151.209 615.488C134.692 552.331 143.943 462.251 249.074 447.628C252.42 446.859 255.838 446.18 259.346 445.572C277.992 442.319 299.215 441.049 324.106 441.729C342.323 442.247 359.358 444.035 375.088 446.859C445.234 459.087 489.559 490.442 498.542 514.558C510.353 546.092 520.266 584.294 528.569 626.268Z" fill="black"/>
<path d="M369.021 281.788L282.215 264.876L258.88 448.987L373.978 512.609L375.356 453.223L369.021 281.788Z" fill="#FDCBB2"/>
<path d="M275.701 332.056L371.383 345.589L374.032 417.363L275.701 332.056Z" fill="#EAB7A0"/>
<path d="M259.113 73.1328C279.584 59.9221 301.899 50.3939 323.283 39.954C344.703 29.5856 365.371 18.3234 381.44 0C376.269 11.0298 367.948 20.6831 358.303 28.37C348.693 36.1999 337.921 42.2601 327.023 47.6409C304.977 58.0808 282.34 66.0359 259.113 73.1328Z" fill="#1A1919"/>
<path d="M303.42 64.9275C314.353 58.7065 325.681 54.1479 336.99 49.9827C348.299 45.8175 359.573 42.0277 370.721 38.3093C381.852 34.5374 392.857 30.8727 403.612 26.493C414.384 22.0953 424.852 17.0899 435.875 11.0298C429.917 22.149 420.415 31.2124 409.946 38.2378C399.424 45.3169 387.918 50.6263 376.161 54.5233C364.405 58.4741 352.362 61.084 340.265 62.8717C328.168 64.6593 315.982 65.6068 303.402 64.9454L303.42 64.9275Z" fill="#1A1919"/>
<path d="M315.767 41.5271C327.864 38.059 339.943 36.2893 351.914 34.877C363.886 33.4826 375.75 32.4458 387.453 31.4447C399.156 30.39 410.716 29.4068 422.204 27.6728C433.71 25.9209 445.055 23.5254 457.206 20.2183C448.795 29.6392 437.432 36.1999 425.604 40.5796C413.722 44.9772 401.267 47.4442 388.938 48.4632C376.573 49.5358 364.261 49.2497 352.093 48.1414C339.907 47.033 327.828 45.1024 315.785 41.4913L315.767 41.5271Z" fill="#1A1919"/>
<path d="M324.285 52.557C336.704 50.4654 348.908 50.0543 360.951 50.0007C373.012 49.947 384.894 50.2509 396.651 50.5727C408.389 50.823 419.985 51.1626 431.599 50.7157C443.23 50.2688 454.772 49.1605 467.209 47.2119C457.796 55.6318 445.771 60.8875 433.531 63.9086C421.22 66.9476 408.586 68.0023 396.203 67.6448C383.802 67.323 371.598 65.6605 359.627 63.2114C347.637 60.7444 335.863 57.473 324.285 52.5391V52.557Z" fill="#1A1919"/>
<path d="M357.408 78.4243C369.898 76.9584 382.12 77.155 394.163 77.7092C406.206 78.2634 418.07 79.1572 429.791 80.0689C441.512 80.9091 453.072 81.8208 464.686 81.9638C476.317 82.1068 487.913 81.5705 500.439 80.2656C490.615 88.2027 478.339 92.8506 465.956 95.2461C453.52 97.6773 440.832 98.0884 428.485 97.1052C416.12 96.1757 404.005 93.8875 392.177 90.8485C380.331 87.7737 368.735 83.9302 357.426 78.4243H357.408Z" fill="#1A1919"/>
<path d="M385.574 387.867L275.701 332.074L246.801 68.4671C596.014 -7.31149 434.963 376.319 434.963 376.319C434.963 376.319 420.021 397.699 385.574 387.867Z" fill="#FDCBB2"/>
<path d="M294.133 129.515C248.197 84.4129 399.764 74.6166 286.885 52.843C208.364 37.7016 206.753 118.861 218.17 143.584C245.119 202.005 254.407 214.894 276.077 236.667L311.186 238.115C290.983 191.243 309.808 144.889 294.15 129.498L294.133 129.515Z" fill="#1A1919"/>
<path d="M376.537 120.917C439.043 105.418 462.914 146.248 462.914 146.248C489.684 111.782 496.305 32.124 401.804 31.6771C337.402 31.3732 256.035 50.6262 256.804 87.5591C257.574 124.492 300.843 139.705 376.555 120.917H376.537Z" fill="#1A1919"/>
<path d="M278.466 262.436C290.88 256.674 292.463 233.77 282.003 211.278C271.542 188.787 252.999 175.224 240.586 180.986C228.172 186.747 226.589 209.651 237.05 232.143C247.51 254.635 266.053 268.197 278.466 262.436Z" fill="#FDCBB2"/>
<path d="M243.938 197.017C247.499 195.086 251.901 195.247 255.767 196.57C259.721 197.857 263.085 200.539 265.698 203.595C268.293 206.742 269.921 210.406 270.923 214.143C271.818 217.897 271.997 221.776 271.12 225.637C268.525 222.562 266.646 219.613 264.803 216.77C262.763 214.071 261.171 211.282 259.095 209.012C255.176 204.221 251.025 200.342 243.956 197.017H243.938Z" fill="#CA807A"/>
<path d="M407.727 202.934L334.431 202.648C334.431 202.648 342.609 184.236 372.529 184.593C402.448 184.968 407.745 202.916 407.745 202.916L407.727 202.934Z" fill="#1A1919"/>
<path d="M455.613 196.052C440.582 191.1 429.684 205.258 429.684 205.258L466.386 214.697C466.386 214.697 470.323 200.896 455.613 196.052Z" fill="#1A1919"/>
<path d="M355.797 240.743C356.155 233.36 360.164 225.727 366.802 222.152C369.63 220.632 372.922 220.096 376.036 221.007C380.205 222.223 383.248 225.655 385.502 229.213C386.97 231.537 390.674 229.392 389.189 227.05C385.091 220.561 378.631 215.305 370.542 216.467C363.76 217.432 358.141 222.598 354.956 228.426C352.88 232.216 351.735 236.417 351.52 240.725C351.395 243.478 355.672 243.46 355.797 240.725V240.743Z" fill="#001848"/>
<path d="M378.067 235.786C378.337 228.969 374.945 223.3 370.491 223.125C366.037 222.949 362.208 228.333 361.939 235.15C361.67 241.967 365.062 247.635 369.516 247.811C373.969 247.986 377.798 242.603 378.067 235.786Z" fill="#3D937D"/>
<path d="M416.621 216.771C438.255 257.744 432.941 312.893 432.941 312.893L402.878 294.319L416.621 216.789V216.771Z" fill="#EAB7A0"/>
<path d="M436.18 246.821C436.287 244.551 436.842 242.227 437.862 240.35C438.112 239.885 438.381 239.438 438.685 239.009C438.953 238.616 439.114 238.419 439.562 237.936C439.902 237.579 440.242 237.257 440.618 236.917C440.94 236.631 440.993 236.596 441.566 236.22C441.96 235.97 442.353 235.738 442.765 235.541C442.962 235.434 443.176 235.344 443.373 235.255C443.015 235.416 443.624 235.165 443.749 235.13C444.161 234.987 444.59 234.862 445.02 234.772C445.234 234.719 445.449 234.683 445.664 234.647C445.986 234.593 445.306 234.683 445.646 234.647C445.771 234.647 445.896 234.629 446.004 234.611C446.433 234.576 446.845 234.576 447.274 234.611C447.453 234.611 447.936 234.683 447.507 234.611C447.74 234.647 447.972 234.683 448.205 234.736C448.616 234.826 449.01 234.951 449.386 235.094C449.44 235.112 449.762 235.237 449.386 235.094C449.493 235.148 449.601 235.183 449.708 235.237C449.923 235.344 450.137 235.452 450.334 235.577C450.531 235.702 450.746 235.827 450.943 235.97C450.961 235.988 451.211 236.167 451.014 236.024C450.8 235.845 451.175 236.167 451.229 236.202C451.605 236.542 451.963 236.9 452.267 237.311C452.034 237.025 452.446 237.579 452.517 237.686C452.679 237.954 452.84 238.204 452.983 238.491C453.305 239.098 453.323 239.188 453.573 239.903C454.414 242.513 458.548 241.387 457.707 238.759C456.132 233.95 452.213 230.482 447.042 230.321C442.049 230.16 437.45 233.128 434.802 237.203C432.941 240.046 432.1 243.424 431.957 246.803C431.831 249.556 436.108 249.538 436.233 246.803L436.18 246.821Z" fill="#001848"/>
<path d="M449.135 244.666C449.333 239.665 446.931 235.509 443.771 235.384C440.611 235.26 437.889 239.213 437.692 244.215C437.494 249.217 439.896 253.372 443.056 253.497C446.216 253.622 448.938 249.668 449.135 244.666Z" fill="#3D937D"/>
<path d="M367.554 310.944C377.485 317.737 388.473 322.796 399.997 325.406C405.777 326.693 411.646 327.104 417.48 327.605C423.331 328.195 429.219 328.213 435.303 328.07L435.41 328.481C429.738 331.037 423.475 331.699 417.319 331.877C411.109 331.913 405.007 330.501 399.138 328.713C387.328 325.245 376.501 319.078 367.303 311.284L367.554 310.944Z" fill="#CA807A"/>
<defs>
<linearGradient id="paint0_linear_9883_920" x1="225.095" y1="147.303" x2="466.486" y2="665.479" gradientUnits="userSpaceOnUse">
<stop offset="0.05" stop-color="#477FA3"/>
<stop offset="1" stop-color="#005C82"/>
</linearGradient>
</defs>
</svg>
