<svg width="140" height="140" viewBox="0 0 140 140" fill="none" xmlns="http://www.w3.org/2000/svg">
<path d="M22.1411 60.9176C-4.7137 76.4212 -4.7137 101.56 22.1411 117.063C48.9959 132.567 92.5387 132.57 119.391 117.063C146.243 101.557 146.245 76.4212 119.391 60.9176C92.5359 45.414 48.9931 45.4056 22.1411 60.9176Z" fill="#F5F5F5"/>
<path d="M126.245 60.9092C126.105 61.0464 125.881 61.2368 125.596 61.4692C123.807 62.9924 119.637 66.5344 119.111 71.4736L118.534 71.3252C118.484 65.9128 122.3 60.366 124.927 59.2432C124.941 59.2371 124.955 59.2281 124.966 59.2167C124.977 59.2053 124.986 59.1918 124.992 59.1769C124.998 59.1621 125.001 59.1461 125.001 59.1301C125.001 59.1141 124.997 59.0983 124.991 59.0836C124.978 59.0541 124.954 59.0309 124.924 59.0189C124.895 59.0069 124.861 59.007 124.831 59.0192C122.183 60.1392 118.263 65.5824 118.291 71.2636L117.901 71.1628C117.756 70.67 116.899 67.2428 119.282 62.7208C119.681 61.9657 120.14 61.2438 120.654 60.562L120.679 60.534C122.337 58.3752 124.299 57.1432 125.646 57.5828C125.957 57.6651 126.241 57.8289 126.468 58.0573C126.695 58.2856 126.857 58.5703 126.937 58.882C127.008 59.2508 126.981 59.6317 126.86 59.9871C126.738 60.3426 126.527 60.6603 126.245 60.9092Z" fill="white"/>
<path d="M123.179 55.8468C122.101 57.3924 120.984 58.9912 120.466 60.422C119.938 61.1135 119.47 61.8488 119.066 62.62C118.397 63.871 117.913 65.212 117.627 66.6016C117.409 58.378 121.919 51.9296 123.297 50.7788C123.309 50.7685 123.319 50.756 123.327 50.7418C123.334 50.7277 123.338 50.7122 123.34 50.6963C123.341 50.6804 123.339 50.6644 123.334 50.6493C123.329 50.6341 123.321 50.6201 123.311 50.608C123.29 50.5835 123.261 50.5681 123.229 50.565C123.197 50.5618 123.165 50.5712 123.14 50.5912C121.673 51.812 116.725 58.9184 117.445 67.7916C117.443 67.7961 117.443 67.8011 117.445 67.8056C117.317 68.9035 117.378 70.0153 117.624 71.0928L116.944 70.8856C116.762 70.2696 115.345 65.0532 116.51 58.1428C117.129 54.4496 119.268 50.8628 121.597 49.5916C122.675 49.0092 123.731 48.9336 124.736 49.3704C124.969 49.4496 125.18 49.5816 125.353 49.756C125.526 49.9304 125.656 50.1424 125.733 50.3756C126.1 51.6608 124.68 53.6936 123.179 55.8468Z" fill="white"/>
<path d="M127.175 58.8456C127.084 58.4935 126.901 58.1716 126.646 57.9122C126.391 57.6527 126.072 57.4648 125.722 57.3672C124.428 56.9444 122.622 57.9272 121.01 59.764C120.828 59.974 120.646 60.1952 120.466 60.4276C119.938 61.1191 119.47 61.8544 119.066 62.6256C118.397 63.8766 117.913 65.2176 117.627 66.6072C117.543 67.03 117.487 67.4472 117.448 67.8112C117.32 68.9091 117.38 70.0209 117.627 71.0984C117.661 71.2384 117.686 71.3168 117.689 71.3224C117.7 71.3504 117.721 71.3734 117.748 71.3868H117.77L118.358 71.538L119.181 71.748C119.197 71.7521 119.213 71.7521 119.229 71.748C119.248 71.7452 119.266 71.7386 119.282 71.7284C119.296 71.7183 119.308 71.7053 119.316 71.6904C119.325 71.6754 119.33 71.6588 119.332 71.6416C119.783 66.7276 123.964 63.1744 125.75 61.6568C126.03 61.4132 126.265 61.22 126.411 61.0744C126.718 60.7995 126.95 60.4501 127.084 60.0599C127.218 59.6696 127.249 59.2515 127.175 58.8456ZM126.246 60.9148C126.106 61.052 125.882 61.2424 125.596 61.4748C123.807 62.998 119.638 66.54 119.111 71.4792L118.534 71.3308L118.291 71.2692L117.902 71.1684C117.756 70.6756 116.899 67.2484 119.282 62.7264C119.681 61.9713 120.14 61.2494 120.654 60.5676L120.679 60.5396C122.337 58.3808 124.3 57.1488 125.646 57.5884C125.957 57.6707 126.241 57.8345 126.468 58.0629C126.695 58.2912 126.857 58.5759 126.937 58.8876C127.007 59.2556 126.979 59.6353 126.858 59.9897C126.737 60.344 126.526 60.6608 126.246 60.9092V60.9148Z" fill="#4F3D56"/>
<path d="M124.927 59.2544C122.3 60.3744 118.487 65.924 118.534 71.3364V71.4456C118.535 71.4745 118.526 71.5029 118.507 71.5251C118.488 71.5473 118.462 71.5619 118.433 71.566H118.414H118.363C118.343 71.5558 118.326 71.5403 118.313 71.5211C118.301 71.5019 118.294 71.4796 118.293 71.4568C118.293 71.4036 118.293 71.3504 118.293 71.2972C118.265 65.616 122.185 60.1784 124.834 59.0528C124.864 59.0406 124.897 59.0405 124.927 59.0525C124.957 59.0645 124.981 59.0877 124.994 59.1172C125 59.1443 124.997 59.1728 124.985 59.1978C124.973 59.2228 124.952 59.2428 124.927 59.2544Z" fill="#4F3D56"/>
<path d="M123.378 55.9868C122.495 57.1827 121.703 58.4435 121.009 59.7584C120.886 60.0216 120.777 60.2764 120.687 60.5284C120.687 60.5284 120.575 60.618 120.531 60.6012C120.5 60.5898 120.476 60.567 120.462 60.5377C120.449 60.5084 120.447 60.4748 120.458 60.4444V60.422C120.976 58.9912 122.093 57.3924 123.171 55.8468C124.672 53.6936 126.091 51.6608 125.727 50.3756C125.65 50.1424 125.52 49.9304 125.347 49.756C125.174 49.5816 124.963 49.4496 124.731 49.3704C123.725 48.9336 122.67 49.0092 121.592 49.5916C119.262 50.8544 117.112 54.4496 116.504 58.1428C115.339 65.0532 116.756 70.2696 116.938 70.8856L117.619 71.0928L117.831 71.1572C117.863 71.1669 117.889 71.1885 117.904 71.2174C117.919 71.2463 117.922 71.28 117.913 71.3112C117.905 71.3327 117.892 71.3519 117.875 71.3667C117.858 71.3815 117.837 71.3913 117.815 71.3952C117.797 71.3994 117.779 71.3994 117.761 71.3952H117.739L116.804 71.1152C116.785 71.1093 116.767 71.0988 116.753 71.0846C116.739 71.0705 116.729 71.0531 116.723 71.034C116.706 70.9808 115.017 65.4956 116.261 58.1148C116.896 54.3544 119.086 50.6836 121.474 49.39C122.622 48.7684 123.751 48.69 124.834 49.1604C125.097 49.2554 125.335 49.4092 125.529 49.6101C125.723 49.8111 125.868 50.0537 125.954 50.3196C126.363 51.7056 124.915 53.786 123.378 55.9868Z" fill="#4F3D56"/>
<path d="M123.297 50.7788C121.919 51.9296 117.417 58.378 117.627 66.6016C117.627 66.988 117.658 67.38 117.689 67.772C117.692 67.8027 117.683 67.8334 117.664 67.8579C117.646 67.8824 117.618 67.8987 117.588 67.9036C117.558 67.9054 117.528 67.8962 117.504 67.8776C117.481 67.8591 117.464 67.8324 117.459 67.8028C117.457 67.7983 117.457 67.7933 117.459 67.7888C116.739 58.9156 121.687 51.8092 123.154 50.5884C123.179 50.5684 123.211 50.559 123.243 50.5621C123.275 50.5653 123.304 50.5807 123.325 50.6052C123.335 50.6182 123.342 50.6332 123.346 50.6492C123.351 50.6651 123.351 50.6818 123.349 50.6981C123.346 50.7143 123.34 50.7299 123.331 50.7438C123.322 50.7577 123.311 50.7696 123.297 50.7788Z" fill="#4F3D56"/>
<path d="M78.4213 20.5277L75.8061 22.0369C75.8061 21.9193 75.8285 21.8045 75.8285 21.6897V20.9337C75.8285 19.5869 74.8821 19.0409 73.7145 19.7157C73.2132 20.0237 72.7844 20.4363 72.4573 20.9253C72.2669 19.2453 70.9369 18.6013 69.3241 19.5253C67.5797 20.5305 66.1657 22.9805 66.1657 24.9965V26.1165C66.1543 26.5687 66.2452 27.0176 66.4317 27.4297L64.2645 28.6813C63.923 28.9028 63.6387 29.2019 63.4348 29.5542C63.2309 29.9065 63.1132 30.302 63.0913 30.7085C63.0913 31.4561 63.6149 31.7585 64.2645 31.3861L78.4185 23.2129C78.7595 22.9911 79.0433 22.6919 79.2467 22.3396C79.4501 21.9873 79.5673 21.5919 79.5889 21.1857C79.5917 20.4577 79.0681 20.1553 78.4213 20.5277Z" fill="#EBEBEB"/>
<path d="M94.4178 22.1657L92.4578 23.3025C92.4578 23.2157 92.4746 23.1289 92.4746 23.0421V22.4821C92.4746 21.4657 91.7606 21.0541 90.8814 21.5637C90.5015 21.7952 90.1766 22.1067 89.9294 22.4765C89.7866 21.1969 88.7842 20.7209 87.5662 21.4265C86.2502 22.1853 85.1806 24.0333 85.1806 25.5537V26.3937C85.1712 26.7355 85.2411 27.0747 85.3849 27.3849L83.7358 28.3257C83.478 28.4925 83.2634 28.718 83.1096 28.9838C82.9558 29.2495 82.8672 29.5479 82.851 29.8545C82.851 30.4145 83.2458 30.6469 83.7358 30.3669L94.4178 24.2069C94.675 24.0388 94.889 23.8126 95.0427 23.5466C95.1964 23.2805 95.2854 22.9821 95.3026 22.6753C95.3026 22.1069 94.905 21.8857 94.4178 22.1657Z" fill="#EBEBEB"/>
<path d="M78.6063 108.196L76.5119 106.986L78.0351 106.107C78.3084 105.974 78.5389 105.767 78.7001 105.51C78.8614 105.252 78.9469 104.955 78.9469 104.651C78.9469 104.347 78.8614 104.049 78.7001 103.792C78.5389 103.534 78.3084 103.328 78.0351 103.195L74.2439 101.005C73.7858 100.764 73.276 100.639 72.7585 100.639C72.241 100.639 71.7312 100.764 71.2731 101.005L68.7139 102.484L55.4923 94.8481C55.038 94.5986 54.5265 94.4721 54.0083 94.4813C53.489 94.47 52.976 94.5966 52.5215 94.8481L47.1175 97.9701C46.7313 98.1675 46.3989 98.4558 46.1487 98.8101C45.9045 99.2335 45.8304 99.734 45.9415 100.21L48.7415 114.21C48.9039 114.913 49.4303 115.526 50.3067 116.033L54.0895 118.206C54.5418 118.457 55.0531 118.584 55.5707 118.572C56.0864 118.583 56.5955 118.456 57.0463 118.206L67.8011 111.998L70.9315 113.804C71.3899 114.044 71.8995 114.169 72.4169 114.169C72.9343 114.169 73.4439 114.044 73.9023 113.804L78.6063 111.108C78.8805 110.976 79.1119 110.769 79.2739 110.512C79.4358 110.254 79.5217 109.956 79.5217 109.652C79.5217 109.347 79.4358 109.049 79.2739 108.792C79.1119 108.534 78.8805 108.328 78.6063 108.196ZM57.7799 108.795L57.1527 105.642L60.1963 107.4L57.7799 108.795Z" fill="#E0E0E0"/>
<path d="M18.4875 107.104C20.6523 107.893 22.7125 108.945 24.6223 110.234C26.7671 111.684 28.7299 113.446 31.0063 114.641C33.9799 116.206 37.4015 116.772 40.7503 116.601C42.6459 116.509 44.7095 116.094 45.9303 114.599C46.2603 114.224 46.4572 113.751 46.4903 113.252C46.4903 112.524 46.0059 111.897 45.4907 111.393C42.7663 108.722 38.9163 107.619 35.2063 106.754C31.4963 105.888 29.2759 104.813 25.6387 102.87C24.0819 102.03 22.5587 101.142 20.9795 100.35L20.9403 100.33C20.1672 99.907 19.3717 99.5257 18.5575 99.188C17.4851 98.7932 16.5975 98.5048 15.4103 98.5944C14.2231 98.684 12.8903 98.6645 12.0727 99.6249C11.7349 100.03 11.5205 100.523 11.4549 101.046C11.3894 101.569 11.4755 102.1 11.7031 102.576C12.8567 105.236 16.0067 106.199 18.4875 107.104Z" fill="#E0E0E0"/>
<path d="M99.6594 86.4117C98.7102 85.8097 97.663 85.1769 96.543 84.5301C95.423 83.8833 94.303 83.2729 93.2082 82.6905C91.7289 81.9334 90.175 81.3319 88.5714 80.8957C86.8579 80.4292 85.0916 80.1845 83.3158 80.1676H83.0862C81.293 80.1773 79.5073 80.3991 77.7662 80.8285C75.7727 81.3283 73.8607 82.1099 72.0878 83.1496C70.1586 84.2696 68.8006 85.3897 67.941 86.5573C67.0422 87.7921 66.6082 89.0408 66.6502 90.2728C66.722 91.5695 67.2279 92.8043 68.0866 93.7785C69.0099 94.8632 70.0939 95.7999 71.301 96.556C72.281 97.1776 73.3534 97.8244 74.4874 98.4796C75.6214 99.1348 76.7274 99.7397 77.7494 100.28C79.2303 101.035 80.785 101.636 82.389 102.072C84.1013 102.54 85.8668 102.785 87.6418 102.8H87.8882C89.6815 102.791 91.4673 102.569 93.2082 102.139C95.2019 101.64 97.1141 100.858 98.8866 99.818C100.819 98.698 102.177 97.5781 103.033 96.4105C103.935 95.1785 104.369 93.9269 104.324 92.6949C104.253 91.3981 103.747 90.1631 102.888 89.1892C101.959 88.1046 100.871 87.1679 99.6594 86.4117ZM93.2194 93.826C93.1214 93.9744 92.8498 94.2852 92.0994 94.7164C91.5358 95.0525 90.9239 95.3 90.285 95.4501C89.8307 95.5503 89.3671 95.6019 88.9018 95.604C88.7786 95.604 88.6554 95.604 88.5322 95.604C87.9602 95.5682 87.3953 95.4571 86.8522 95.2737C86.2542 95.0686 85.6737 94.8158 85.1162 94.5176C83.0793 93.4783 81.0979 92.3334 79.1802 91.0876C78.7444 90.8266 78.342 90.5135 77.9818 90.1553C77.7967 89.984 77.6605 89.7665 77.587 89.5253C77.587 89.4917 77.5562 89.3825 77.7074 89.1501C77.8054 89.0045 78.077 88.6936 78.8274 88.2596C79.3906 87.9232 80.0027 87.6766 80.6418 87.5289C81.0758 87.4322 81.5189 87.3824 81.9634 87.3805C82.1006 87.3805 82.2434 87.3804 82.3638 87.3944C82.9361 87.4366 83.5006 87.5514 84.0438 87.736C84.6482 87.9406 85.2384 88.1847 85.8106 88.4669C87.8462 89.5253 89.8482 90.6789 91.7662 91.8856C92.2099 92.1558 92.6238 92.4721 93.001 92.8292C93.1791 92.9819 93.3086 93.1834 93.3734 93.4089C93.3678 93.4509 93.3902 93.5656 93.225 93.826H93.2194Z" fill="#E0E0E0"/>
<path d="M130.871 78.0173L128.777 76.8077L130.3 75.9285C130.573 75.7958 130.804 75.5889 130.965 75.3314C131.126 75.0739 131.212 74.7763 131.212 74.4725C131.212 74.1686 131.126 73.871 130.965 73.6135C130.804 73.356 130.573 73.1491 130.3 73.0165L126.506 70.8269C126.048 70.586 125.538 70.4602 125.02 70.4602C124.503 70.4602 123.993 70.586 123.535 70.8269L120.976 72.3025L107.754 64.6697C107.296 64.4288 106.786 64.303 106.269 64.303C105.751 64.303 105.242 64.4288 104.783 64.6697L99.3823 67.7889C98.9948 67.9856 98.6613 68.2739 98.4107 68.6289C98.1659 69.0521 98.0918 69.5528 98.2035 70.0289L101.003 84.0289C101.166 84.7317 101.692 85.3449 102.569 85.8517L106.363 88.0413C106.815 88.293 107.326 88.4196 107.844 88.4081C108.362 88.42 108.875 88.2934 109.328 88.0413L120.083 81.8309L123.213 83.6397C123.671 83.8805 124.181 84.0063 124.698 84.0063C125.216 84.0063 125.726 83.8805 126.184 83.6397L130.868 80.9349C131.142 80.803 131.374 80.5964 131.536 80.3388C131.698 80.0812 131.784 79.7831 131.784 79.4789C131.784 79.1746 131.698 78.8765 131.536 78.6189C131.374 78.3613 131.142 78.1547 130.868 78.0229L130.871 78.0173ZM110.045 78.6137L109.406 75.4637L112.45 77.2193L110.045 78.6137Z" fill="#E0E0E0"/>
<path d="M100.583 107.846C100.657 107.811 100.738 107.793 100.82 107.793C100.902 107.793 100.982 107.811 101.056 107.846L101.983 108.383C102.01 108.394 102.034 108.412 102.051 108.436C102.068 108.46 102.077 108.488 102.078 108.518C102.077 108.547 102.067 108.575 102.05 108.6C102.033 108.624 102.01 108.643 101.983 108.655L97.8393 111.049C97.7658 111.086 97.6848 111.105 97.6027 111.105C97.5205 111.105 97.4395 111.086 97.3661 111.049L91.7157 107.787C91.6887 107.775 91.6654 107.755 91.6482 107.731C91.631 107.707 91.6205 107.679 91.6177 107.65C91.6207 107.62 91.6314 107.592 91.6486 107.568C91.6657 107.544 91.6889 107.525 91.7157 107.512L95.7925 105.16C95.8654 105.124 95.946 105.104 96.0277 105.104C96.1094 105.104 96.19 105.124 96.2629 105.16L97.1897 105.695C97.217 105.707 97.2406 105.726 97.2579 105.75C97.2752 105.774 97.2855 105.803 97.2877 105.832C97.2852 105.862 97.2747 105.89 97.2575 105.914C97.2403 105.939 97.2168 105.958 97.1897 105.97L94.4961 107.524L95.4425 108.07L97.9429 106.625C98.0163 106.588 98.0973 106.569 98.1795 106.569C98.2616 106.569 98.3426 106.588 98.4161 106.625L99.3429 107.16C99.3699 107.171 99.393 107.191 99.4099 107.215C99.4267 107.239 99.4364 107.267 99.4381 107.297C99.4361 107.326 99.4262 107.354 99.4095 107.379C99.3927 107.403 99.3697 107.422 99.3429 107.434L96.8397 108.876L97.8197 109.436L100.583 107.846Z" fill="#455A64"/>
<path d="M101.967 103.422C102.04 103.385 102.121 103.366 102.203 103.366C102.285 103.366 102.366 103.385 102.44 103.422L103.322 103.931C103.349 103.943 103.372 103.962 103.389 103.986C103.405 104.011 103.415 104.039 103.417 104.068C103.415 104.098 103.405 104.126 103.388 104.15C103.372 104.174 103.349 104.194 103.322 104.206L102.527 104.665C101.989 104.973 101.989 105.284 102.527 105.592L104.677 106.835C104.704 106.847 104.728 106.866 104.745 106.89C104.762 106.914 104.773 106.942 104.775 106.972C104.772 107.002 104.762 107.03 104.745 107.054C104.727 107.078 104.704 107.097 104.677 107.109L103.577 107.745C103.503 107.782 103.422 107.801 103.34 107.801C103.258 107.801 103.177 107.782 103.103 107.745L99.0265 105.39C98.9961 105.381 98.9693 105.363 98.9503 105.338C98.9312 105.312 98.9209 105.282 98.9209 105.25C98.9209 105.218 98.9312 105.188 98.9503 105.162C98.9693 105.137 98.9961 105.119 99.0265 105.11L100.043 104.525C100.116 104.488 100.196 104.469 100.278 104.469C100.36 104.469 100.44 104.488 100.513 104.525L100.715 104.64C100.727 104.473 100.786 104.312 100.886 104.178C101.037 103.985 101.228 103.828 101.446 103.716L101.967 103.422Z" fill="#455A64"/>
<path d="M106.2 100.977C106.272 100.938 106.353 100.919 106.435 100.921C106.518 100.919 106.6 100.938 106.673 100.977L107.555 101.487C107.582 101.499 107.605 101.518 107.622 101.542C107.639 101.566 107.649 101.595 107.651 101.624C107.649 101.653 107.639 101.682 107.622 101.706C107.605 101.73 107.582 101.749 107.555 101.761L106.76 102.22C106.223 102.528 106.223 102.838 106.76 103.15L108.911 104.39C108.938 104.402 108.961 104.421 108.978 104.445C108.995 104.469 109.005 104.498 109.006 104.528C109.004 104.557 108.994 104.585 108.977 104.609C108.96 104.634 108.937 104.653 108.911 104.665L107.81 105.3C107.737 105.337 107.656 105.356 107.574 105.356C107.491 105.356 107.41 105.337 107.337 105.3L103.26 102.946C103.233 102.934 103.21 102.916 103.193 102.892C103.177 102.868 103.167 102.84 103.165 102.811C103.167 102.782 103.176 102.753 103.193 102.729C103.21 102.705 103.233 102.686 103.26 102.674L104.277 102.089C104.349 102.05 104.43 102.03 104.512 102.033C104.594 102.031 104.675 102.05 104.747 102.089L104.949 102.204C104.961 102.037 105.02 101.876 105.119 101.742C105.271 101.549 105.462 101.392 105.679 101.28L106.2 100.977Z" fill="#455A64"/>
<path d="M113.721 98.8856C113.816 98.9332 113.931 98.9948 114.068 99.0732C114.205 99.1516 114.312 99.2188 114.396 99.2748C114.634 99.4138 114.837 99.6054 114.989 99.8348C115.113 100.027 115.17 100.254 115.152 100.482C115.119 100.733 115.013 100.969 114.846 101.159C114.617 101.422 114.343 101.642 114.037 101.809C113.686 102.012 113.309 102.169 112.917 102.276C112.535 102.38 112.142 102.439 111.747 102.453C111.371 102.465 110.995 102.433 110.627 102.358C110.286 102.291 109.956 102.176 109.647 102.016C109.554 101.968 109.44 101.904 109.302 101.826C109.165 101.747 109.056 101.68 108.975 101.627C108.732 101.491 108.524 101.299 108.37 101.067C108.247 100.873 108.192 100.643 108.213 100.414C108.248 100.163 108.355 99.9261 108.521 99.734C108.745 99.4674 109.018 99.246 109.325 99.0816C109.676 98.8776 110.052 98.7213 110.445 98.6168C110.831 98.5148 111.227 98.4556 111.626 98.4404C112.002 98.4255 112.378 98.4566 112.746 98.5328C113.086 98.603 113.415 98.7219 113.721 98.8856ZM111.167 101.086C111.404 101.203 111.665 101.259 111.929 101.249C112.194 101.238 112.452 101.163 112.682 101.03C112.914 100.896 113.04 100.75 113.057 100.596C113.074 100.442 112.982 100.297 112.777 100.157C112.687 100.091 112.594 100.03 112.497 99.9748C112.395 99.9161 112.289 99.8628 112.181 99.8152C111.946 99.6972 111.685 99.6413 111.422 99.6528C111.157 99.6618 110.898 99.7358 110.669 99.8684C110.436 100.006 110.31 100.148 110.294 100.305C110.277 100.462 110.369 100.605 110.574 100.745C110.663 100.811 110.756 100.871 110.854 100.924C110.955 100.982 111.06 101.033 111.167 101.078V101.086Z" fill="#455A64"/>
<path d="M115.995 95.3212C116.068 95.2845 116.149 95.2654 116.231 95.2654C116.313 95.2654 116.394 95.2845 116.468 95.3212L117.353 95.8308C117.379 95.8429 117.402 95.8621 117.419 95.8862C117.436 95.9104 117.446 95.9387 117.448 95.968C117.446 95.9974 117.436 96.0258 117.419 96.0501C117.403 96.0743 117.38 96.0934 117.353 96.1052L116.555 96.5644C116.021 96.8724 116.021 97.1823 116.555 97.494L118.708 98.7344C118.735 98.7465 118.758 98.7657 118.774 98.7898C118.791 98.814 118.801 98.8423 118.803 98.8716C118.801 98.901 118.792 98.9294 118.775 98.9537C118.758 98.9779 118.735 98.997 118.708 99.0088L117.605 99.6444C117.532 99.6833 117.451 99.7026 117.369 99.7004C117.287 99.7028 117.206 99.6835 117.134 99.6444L113.046 97.2924C113.019 97.2805 112.996 97.2614 112.978 97.2373C112.961 97.2131 112.951 97.1848 112.948 97.1552C112.95 97.1256 112.961 97.0971 112.978 97.0729C112.995 97.0487 113.019 97.0297 113.046 97.018L114.06 96.4328C114.133 96.3961 114.214 96.377 114.296 96.377C114.378 96.377 114.459 96.3961 114.533 96.4328L114.735 96.5476C114.745 96.3803 114.805 96.2198 114.905 96.0856C115.056 95.8926 115.247 95.735 115.465 95.6236L115.995 95.3212Z" fill="#455A64"/>
<path d="M77.6651 105.488L72.9779 108.193C72.6788 108.344 72.3484 108.422 72.0133 108.422C71.6783 108.422 71.3479 108.344 71.0487 108.193L67.4087 106.087L56.1247 112.606C55.8241 112.755 55.493 112.833 55.1573 112.833C54.8217 112.833 54.4906 112.755 54.1899 112.606L50.3987 110.413C49.7771 110.059 49.4187 109.673 49.3235 109.257L46.5235 95.2904C46.5092 95.2081 46.5026 95.1247 46.5039 95.0412C46.5039 95.3212 46.5039 98.796 46.5039 98.9612C46.5054 99.0334 46.512 99.1055 46.5235 99.1768L49.3235 113.143C49.4187 113.558 49.7771 113.943 50.3987 114.3L54.1899 116.489C54.4901 116.64 54.8214 116.719 55.1573 116.719C55.4933 116.719 55.8246 116.64 56.1247 116.489L67.4059 109.979L71.0459 112.085C71.3451 112.236 71.6755 112.314 72.0105 112.314C72.3456 112.314 72.676 112.236 72.9751 112.085L77.6623 109.38C77.7734 109.332 77.8691 109.255 77.9388 109.156C78.0085 109.057 78.0494 108.941 78.0571 108.82V104.928C78.0494 105.048 78.0087 105.164 77.9396 105.263C77.8704 105.362 77.7755 105.44 77.6651 105.488Z" fill="#4F3D56"/>
<path d="M77.4859 103.822V99.93C77.477 100.05 77.4355 100.166 77.366 100.265C77.2965 100.363 77.2015 100.441 77.0911 100.49L74.0111 102.265L77.3347 104.183C77.4269 104.085 77.4806 103.957 77.4859 103.822Z" fill="#4F3D56"/>
<path d="M56.1443 103.273L58.4767 104.626L61.8507 102.68L55.2651 98.8744L56.1415 103.273H56.1443Z" fill="#4F3D56"/>
<path opacity="0.35" d="M56.1443 103.273L58.4767 104.626L61.8507 102.68L55.2651 98.8744L56.1415 103.273H56.1443Z" fill="#407BFF"/>
<path opacity="0.2" d="M77.4859 103.822V99.93C77.477 100.05 77.4355 100.166 77.366 100.265C77.2965 100.363 77.2015 100.441 77.0911 100.49L74.0111 102.265L77.3347 104.183C77.4269 104.085 77.4806 103.957 77.4859 103.822V103.822Z" fill="#407BFF"/>
<path opacity="0.2" d="M77.6652 105.488L72.978 108.193C72.6824 108.355 72.3487 108.434 72.012 108.422V112.326C72.3487 112.337 72.6824 112.258 72.978 112.096L77.6652 109.391C77.7762 109.343 77.8719 109.266 77.9416 109.167C78.0113 109.068 78.0522 108.952 78.06 108.831V104.939C78.05 105.058 78.008 105.172 77.9384 105.268C77.8689 105.365 77.7745 105.441 77.6652 105.488Z" fill="#407BFF"/>
<path opacity="0.25" d="M49.3235 109.246L46.5235 95.2792C46.5092 95.1969 46.5026 95.1135 46.5039 95.03C46.5039 95.31 46.5039 98.7848 46.5039 98.95C46.5054 99.0222 46.512 99.0943 46.5235 99.1656L49.3235 113.132C49.3425 113.214 49.3717 113.293 49.4103 113.367V109.475C49.3721 109.403 49.3429 109.325 49.3235 109.246V109.246Z" fill="#407BFF"/>
<path opacity="0.35" d="M55.1588 112.824C54.8217 112.833 54.4881 112.755 54.19 112.597L50.3988 110.405C49.9842 110.204 49.6397 109.883 49.4104 109.484V113.376C49.6397 113.775 49.9842 114.096 50.3988 114.297L54.19 116.486C54.4872 116.647 54.8213 116.726 55.1588 116.716C55.1941 116.72 55.2299 116.72 55.2652 116.716V112.824C55.2299 112.828 55.1941 112.828 55.1588 112.824V112.824Z" fill="#407BFF"/>
<path opacity="0.2" d="M56.1247 112.606C55.8607 112.748 55.5653 112.823 55.2651 112.824V116.716C55.5657 116.716 55.8614 116.64 56.1247 116.495L67.4059 109.979V106.087L56.1247 112.606Z" fill="#407BFF"/>
<path opacity="0.35" d="M71.046 108.193L67.406 106.087V109.979L71.046 112.085C71.3404 112.247 71.6733 112.326 72.0092 112.314V108.422C71.6733 108.434 71.3404 108.355 71.046 108.193V108.193Z" fill="#407BFF"/>
<path d="M72.9779 108.193C72.6783 108.344 72.3474 108.422 72.0119 108.422C71.6764 108.422 71.3456 108.344 71.0459 108.193L67.4059 106.087L56.1247 112.606C55.8246 112.755 55.4939 112.832 55.1587 112.832C54.8235 112.832 54.4929 112.755 54.1927 112.606L50.3987 110.416C49.7809 110.058 49.4234 109.672 49.3263 109.26L46.5263 95.2932C46.4703 95.0781 46.4952 94.8499 46.5963 94.652C46.7608 94.4438 46.9692 94.2746 47.2067 94.1564L52.6079 91.0372C52.9053 90.8776 53.2395 90.7993 53.5767 90.8104C53.9122 90.7993 54.2447 90.8775 54.5399 91.0372L68.2823 98.9696L71.3623 97.1944C71.662 97.0435 71.9928 96.9649 72.3283 96.9649C72.6638 96.9649 72.9947 97.0435 73.2943 97.1944L77.0883 99.384C77.2056 99.4234 77.3076 99.4987 77.3798 99.5992C77.452 99.6996 77.4909 99.8203 77.4909 99.944C77.4909 100.068 77.452 100.188 77.3798 100.289C77.3076 100.389 77.2056 100.465 77.0883 100.504L74.0083 102.282L77.6483 104.388C77.7643 104.428 77.8648 104.504 77.9358 104.604C78.0069 104.705 78.0451 104.825 78.0451 104.948C78.0451 105.071 78.0069 105.19 77.9358 105.291C77.8648 105.391 77.7643 105.467 77.6483 105.508L72.9779 108.193ZM61.8479 102.677L55.2651 98.8856L56.6259 105.704L61.8479 102.677Z" fill="#407BFF"/>
<path d="M102.86 88.2092C102.843 89.1472 102.473 90.1048 101.762 91.0792C101 92.1264 99.7245 93.1661 97.9343 94.1984C96.2476 95.1895 94.4279 95.9344 92.5303 96.4104C90.7905 96.8432 89.0031 97.0548 87.2103 97.0404C85.5243 97.0257 83.8472 96.7932 82.2207 96.3488C80.6847 95.9328 79.1964 95.3575 77.7799 94.6324C76.7551 94.0948 75.6855 93.5124 74.5599 92.8544C73.4343 92.1964 72.3899 91.5776 71.4127 90.956C70.2976 90.2596 69.2965 89.3955 68.4447 88.394C67.7298 87.5974 67.3072 86.5814 67.2463 85.5128C67.2659 86.1288 67.2211 88.7216 67.2463 89.4048C67.3072 90.4734 67.7298 91.4894 68.4447 92.286C69.2965 93.2875 70.2976 94.1516 71.4127 94.848C72.389 95.4696 73.4381 96.1024 74.5599 96.7464C75.6799 97.3932 76.7551 97.9868 77.7799 98.5272C79.197 99.2502 80.6853 99.8245 82.2207 100.241C83.8472 100.685 85.5243 100.918 87.2103 100.932C89.0031 100.947 90.7905 100.735 92.5303 100.302C94.4279 99.8264 96.2476 99.0815 97.9343 98.0904C99.7263 97.0563 101.002 96.0165 101.762 94.9712C102.526 93.9268 102.882 92.902 102.854 91.9052C102.834 91.3256 102.871 89.0856 102.86 88.2092Z" fill="#407BFF"/>
<path opacity="0.35" d="M88.1707 97.0208C87.8515 97.0208 87.5323 97.046 87.2159 97.0404C85.5299 97.0257 83.8528 96.7932 82.2263 96.3488C80.6904 95.9328 79.202 95.3575 77.7855 94.6324C76.7607 94.0948 75.6911 93.5124 74.5655 92.8544C73.4399 92.1964 72.3955 91.5776 71.4183 90.956C70.3032 90.2596 69.3021 89.3955 68.4503 88.394C67.7354 87.5974 67.3128 86.5814 67.2519 85.5128C67.2715 86.1288 67.2267 88.7216 67.2519 89.4048C67.3128 90.4734 67.7354 91.4894 68.4503 92.286C69.3021 93.2875 70.3032 94.1516 71.4183 94.848C72.3946 95.4696 73.4437 96.1024 74.5655 96.7464C75.6855 97.3932 76.7607 97.9868 77.7855 98.5272C79.2027 99.2502 80.6909 99.8245 82.2263 100.241C83.8528 100.685 85.5299 100.918 87.2159 100.932C87.5323 100.932 87.8515 100.932 88.1707 100.913V97.0208Z" fill="black"/>
<path opacity="0.2" d="M102.86 88.2092C102.843 89.1472 102.473 90.1048 101.762 91.0792C101 92.1264 99.7245 93.1661 97.9344 94.1984C96.2477 95.1896 94.4279 95.9344 92.5304 96.4104C91.1025 96.7606 89.6427 96.9651 88.1736 97.0208V100.913C89.6426 100.856 91.1022 100.651 92.5304 100.302C94.4279 99.8264 96.2477 99.0816 97.9344 98.0904C99.7264 97.0563 101.002 96.0165 101.762 94.9712C102.526 93.9268 102.882 92.902 102.854 91.9052C102.834 91.3256 102.871 89.0856 102.86 88.2092Z" fill="black"/>
<path d="M76.8224 86.1428C77.0389 86.3646 77.272 86.5695 77.5196 86.756C77.64 86.6776 77.7604 86.5992 77.8948 86.5208C78.5521 86.136 79.2639 85.8528 80.006 85.6808C80.6699 85.5331 81.3518 85.4822 82.0304 85.5296C82.6891 85.5775 83.3391 85.7083 83.9652 85.9188C84.621 86.1412 85.2625 86.404 85.886 86.7056C87.9598 87.7976 89.9637 88.9559 91.8976 90.1804C92.1496 90.3372 92.382 90.4996 92.5948 90.6564C93.0208 90.4061 93.3914 90.0717 93.684 89.6736C93.9297 89.3333 94.0304 88.9093 93.964 88.4948C93.8619 88.0633 93.6315 87.6728 93.3032 87.3748C92.872 86.9648 92.398 86.6024 91.8892 86.294C89.9534 85.062 87.9524 83.9019 85.886 82.8136C85.2654 82.5094 84.6268 82.2439 83.9736 82.0184C83.3475 81.8079 82.6975 81.6771 82.0388 81.6292C81.3601 81.5813 80.678 81.6332 80.0144 81.7832C79.2718 81.9536 78.5598 82.2369 77.9032 82.6232C77.3306 82.9154 76.8304 83.3315 76.4388 83.8412C76.3145 84.0062 76.2256 84.195 76.1774 84.3959C76.1292 84.5968 76.1229 84.8054 76.1588 85.0088C76.2745 85.4393 76.5037 85.831 76.8224 86.1428Z" fill="#4F3D56"/>
<path opacity="0.35" d="M76.8224 86.1428C77.0389 86.3646 77.272 86.5695 77.5196 86.756C77.64 86.6776 77.7604 86.5992 77.8948 86.5208C78.5521 86.136 79.2639 85.8528 80.006 85.6808C80.6699 85.5331 81.3518 85.4822 82.0304 85.5296C82.6891 85.5775 83.3391 85.7083 83.9652 85.9188C84.621 86.1412 85.2625 86.404 85.886 86.7056C87.9598 87.7976 89.9637 88.9559 91.8976 90.1804C92.1496 90.3372 92.382 90.4996 92.5948 90.6564C93.0208 90.4061 93.3914 90.0717 93.684 89.6736C93.9297 89.3333 94.0304 88.9093 93.964 88.4948C93.8619 88.0633 93.6315 87.6728 93.3032 87.3748C92.872 86.9648 92.398 86.6024 91.8892 86.294C89.9534 85.062 87.9524 83.9019 85.886 82.8136C85.2654 82.5094 84.6268 82.2439 83.9736 82.0184C83.3475 81.8079 82.6975 81.6771 82.0388 81.6292C81.3601 81.5813 80.678 81.6332 80.0144 81.7832C79.2718 81.9536 78.5598 82.2369 77.9032 82.6232C77.3306 82.9154 76.8304 83.3315 76.4388 83.8412C76.3145 84.0062 76.2256 84.195 76.1774 84.3959C76.1292 84.5968 76.1229 84.8054 76.1588 85.0088C76.2745 85.4393 76.5037 85.831 76.8224 86.1428Z" fill="#407BFF"/>
<path d="M72.166 79.3248C73.8521 78.3326 75.672 77.5877 77.57 77.1128C79.31 76.6813 81.0973 76.4697 82.8899 76.4828C84.5768 76.4987 86.2547 76.7312 87.8824 77.1744C89.4189 77.5913 90.9081 78.1665 92.326 78.8908C93.3993 79.4508 94.4969 80.0565 95.6188 80.708C96.7406 81.3595 97.7673 81.9792 98.6988 82.5672C99.8134 83.2643 100.814 84.1284 101.667 85.1292C102.38 85.9273 102.803 86.9423 102.868 88.0104C102.903 89.0091 102.539 90.0357 101.776 91.0904C101.012 92.1451 99.7292 93.1811 97.926 94.1984C96.2393 95.1896 94.4195 95.9344 92.522 96.4104C90.7819 96.8419 88.9946 97.0535 87.202 97.0404C85.5148 97.0251 83.8368 96.7917 82.2096 96.346C80.6746 95.9309 79.1872 95.3566 77.7716 94.6324C76.7467 94.0948 75.6734 93.5031 74.5515 92.8572C73.4297 92.2113 72.3797 91.5776 71.4016 90.956C70.2876 90.258 69.2867 89.3941 68.4336 88.394C67.7201 87.5952 67.2969 86.5791 67.2324 85.51C67.1988 84.5132 67.5628 83.4865 68.3244 82.43C69.086 81.3735 70.3665 80.3384 72.166 79.3248ZM91.8892 86.2856C89.9534 85.0611 87.9496 83.9047 85.8776 82.8164C85.2567 82.5102 84.617 82.2437 83.9624 82.0184C83.3371 81.8081 82.6881 81.6764 82.0304 81.6264C81.3515 81.5808 80.6697 81.6336 80.006 81.7832C79.2634 81.9536 78.5514 82.2369 77.8948 82.6232C77.3222 82.9154 76.822 83.3315 76.4304 83.8412C76.3054 84.0058 76.216 84.1946 76.1678 84.3956C76.1196 84.5966 76.1136 84.8054 76.1504 85.0088C76.2632 85.4359 76.4919 85.8235 76.8112 86.1288C77.2321 86.5487 77.7022 86.9163 78.2112 87.2236C80.1534 88.4837 82.16 89.6417 84.2228 90.6928C84.8259 91.0157 85.4542 91.2891 86.1015 91.5104C87.1027 91.8552 88.167 91.9775 89.2203 91.8687C90.2736 91.7599 91.2904 91.4226 92.1999 90.8804C92.7745 90.5889 93.276 90.1716 93.6672 89.6596C93.9125 89.3201 94.0132 88.8972 93.9472 88.4836C93.8458 88.0512 93.6142 87.6602 93.2836 87.3636C92.8591 86.9549 92.3916 86.5934 91.8892 86.2856Z" fill="#407BFF"/>
<path d="M129.936 75.3096L125.248 78.0144C124.949 78.1653 124.619 78.2439 124.284 78.2439C123.949 78.2439 123.618 78.1653 123.319 78.0144L119.679 75.906L108.406 82.416C108.107 82.5669 107.776 82.6455 107.44 82.6455C107.105 82.6455 106.774 82.5669 106.474 82.416L102.68 80.2264C102.059 79.8708 101.703 79.4844 101.605 79.07L98.8051 65.1036C98.7909 65.0213 98.7843 64.9379 98.7855 64.8544C98.7855 65.1344 98.7855 68.6092 98.7855 68.7744C98.7871 68.8466 98.7937 68.9187 98.8051 68.99L101.605 82.9536C101.703 83.3708 102.059 83.7544 102.68 84.1128L106.474 86.3024C106.774 86.4533 107.105 86.5319 107.44 86.5319C107.776 86.5319 108.107 86.4533 108.406 86.3024L119.679 79.7924L123.319 81.9008C123.618 82.0517 123.949 82.1303 124.284 82.1303C124.619 82.1303 124.949 82.0517 125.248 81.9008L129.936 79.196C130.047 79.1482 130.142 79.0706 130.212 78.9717C130.282 78.8729 130.323 78.7567 130.33 78.636V74.7496C130.322 74.8702 130.281 74.9863 130.212 75.085C130.142 75.1838 130.046 75.2615 129.936 75.3096Z" fill="#407BFF"/>
<path d="M129.759 73.6408V69.7488C129.75 69.8691 129.709 69.9848 129.639 70.0834C129.57 70.182 129.475 70.2599 129.364 70.3088L126.284 72.084L129.608 73.9992C129.701 73.9028 129.755 73.7749 129.759 73.6408Z" fill="#407BFF"/>
<path d="M108.415 73.0948L110.747 74.4472L114.121 72.5012L107.536 68.696L108.412 73.0948H108.415Z" fill="#407BFF"/>
<path opacity="0.35" d="M108.415 73.0948L110.747 74.4472L114.121 72.5012L107.536 68.696L108.412 73.0948H108.415Z" fill="black"/>
<path opacity="0.2" d="M129.759 73.6408V69.7488C129.75 69.8691 129.709 69.9848 129.639 70.0834C129.57 70.182 129.475 70.2599 129.364 70.3088L126.284 72.084L129.608 73.9992C129.701 73.9028 129.755 73.7749 129.759 73.6408Z" fill="black"/>
<path opacity="0.2" d="M129.936 75.3096L125.248 78.0144C124.953 78.1763 124.619 78.2556 124.282 78.244V82.136C124.619 82.1476 124.953 82.0683 125.248 81.9064L129.936 79.2016C130.047 79.1538 130.142 79.0761 130.212 78.9773C130.282 78.8785 130.323 78.7623 130.33 78.6416V74.7496C130.322 74.8702 130.281 74.9863 130.212 75.085C130.142 75.1838 130.046 75.2615 129.936 75.3096Z" fill="black"/>
<path opacity="0.25" d="M101.594 79.07L98.7939 65.1036C98.7797 65.0213 98.7731 64.9379 98.7743 64.8544C98.7743 65.1344 98.7743 68.6092 98.7743 68.7744C98.7759 68.8466 98.7825 68.9187 98.7939 68.99L101.594 82.9536C101.612 83.0368 101.642 83.117 101.684 83.1916V79.2996C101.643 79.2275 101.613 79.1503 101.594 79.07Z" fill="black"/>
<path opacity="0.35" d="M107.429 82.6456C107.093 82.6554 106.759 82.5762 106.463 82.416L102.669 80.2264C102.255 80.0265 101.911 79.7052 101.684 79.3052V83.2056C101.911 83.6056 102.255 83.927 102.669 84.1268L106.463 86.3164C106.759 86.4766 107.093 86.5558 107.429 86.546C107.465 86.5501 107.5 86.5501 107.536 86.546V82.6456C107.5 82.6497 107.465 82.6497 107.429 82.6456Z" fill="black"/>
<path opacity="0.2" d="M108.395 82.416C108.132 82.5613 107.836 82.6374 107.536 82.6372V86.5292C107.836 86.5294 108.132 86.4533 108.395 86.308L119.668 79.798V75.906L108.395 82.416Z" fill="black"/>
<path opacity="0.35" d="M123.319 78.0144L119.679 75.906V79.798L123.319 81.9064C123.614 82.0686 123.946 82.1479 124.282 82.136V78.244C123.946 78.2559 123.614 78.1766 123.319 78.0144Z" fill="black"/>
<path d="M125.251 78.0144C124.954 78.1753 124.62 78.2536 124.282 78.2412C123.946 78.2519 123.613 78.1737 123.316 78.0144L119.676 75.9088L108.404 82.416C108.103 82.5652 107.773 82.6429 107.438 82.6429C107.102 82.6429 106.772 82.5652 106.472 82.416L102.678 80.2264C102.06 79.868 101.702 79.4825 101.605 79.07L98.8051 65.1036C98.7504 64.8884 98.7753 64.6607 98.8751 64.4624C99.0396 64.2542 99.248 64.085 99.4855 63.9668L104.887 60.8476C105.187 60.6967 105.518 60.618 105.854 60.618C106.19 60.618 106.521 60.6967 106.822 60.8476L120.561 68.78L123.641 67.002C123.941 66.8528 124.272 66.7751 124.607 66.7751C124.942 66.7751 125.273 66.8528 125.573 67.002L129.364 69.2056C129.482 69.245 129.584 69.3203 129.656 69.4208C129.728 69.5212 129.767 69.6419 129.767 69.7656C129.767 69.8893 129.728 70.01 129.656 70.1104C129.584 70.2109 129.482 70.2862 129.364 70.3256L126.284 72.1036L129.924 74.2092C130.04 74.25 130.141 74.3257 130.212 74.4261C130.283 74.5264 130.321 74.6463 130.321 74.7692C130.321 74.8921 130.283 75.012 130.212 75.1123C130.141 75.2127 130.04 75.2884 129.924 75.3292L125.251 78.0144ZM114.121 72.4984L107.536 68.6988L108.896 75.514L114.121 72.4984Z" fill="#407BFF"/>
<path d="M87.916 58.6944C88.1596 57.5576 83.52 60.2372 83.2764 61.374L84.766 65.3976C84.82 65.5141 84.9078 65.6116 85.018 65.6776C85.3456 65.8792 86.5552 66.5624 86.6588 66.6268C86.7427 66.6782 86.8371 66.7098 86.9351 66.7193C87.033 66.7288 87.1318 66.7159 87.224 66.6817C87.3162 66.6475 87.3994 66.5927 87.4674 66.5216C87.5354 66.4505 87.5863 66.3649 87.6164 66.2712L89.554 59.6268C89.6772 59.0808 87.916 58.6944 87.916 58.6944Z" fill="#4F3D56"/>
<path opacity="0.25" d="M87.916 58.6944C88.1596 57.5576 83.52 60.2372 83.2764 61.374L84.766 65.3976C84.82 65.5141 84.9078 65.6116 85.018 65.6776C85.3456 65.8792 86.5552 66.5624 86.6588 66.6268C86.7427 66.6782 86.8371 66.7098 86.9351 66.7193C87.033 66.7288 87.1318 66.7159 87.224 66.6817C87.3162 66.6475 87.3994 66.5927 87.4674 66.5216C87.5354 66.4505 87.5863 66.3649 87.6164 66.2712L89.554 59.6268C89.6772 59.0808 87.916 58.6944 87.916 58.6944Z" fill="black"/>
<path d="M102.428 28.5384L63.7128 50.874C63.5312 50.9919 63.38 51.1509 63.2715 51.3382C63.163 51.5256 63.1002 51.7359 63.0884 51.952V73.232C63.1002 73.4482 63.163 73.6585 63.2715 73.8458C63.38 74.0331 63.5312 74.1922 63.7128 74.31L64.102 74.5312C64.295 74.6293 64.5085 74.6805 64.725 74.6805C64.9415 74.6805 65.155 74.6293 65.348 74.5312L104.066 52.1704C104.248 52.0518 104.398 51.8922 104.506 51.7044C104.614 51.5166 104.677 51.306 104.688 51.0896V29.8348C104.677 29.6189 104.614 29.4086 104.506 29.2213C104.398 29.034 104.248 28.8748 104.066 28.7568L103.677 28.5356C103.483 28.4381 103.269 28.3876 103.052 28.3881C102.836 28.3886 102.622 28.4401 102.428 28.5384Z" fill="#4F3D56"/>
<path opacity="0.25" d="M102.428 28.5384L63.7128 50.874C63.5312 50.9919 63.38 51.1509 63.2715 51.3382C63.163 51.5256 63.1002 51.7359 63.0884 51.952V73.232C63.1002 73.4482 63.163 73.6585 63.2715 73.8458C63.38 74.0331 63.5312 74.1922 63.7128 74.31L64.102 74.5312C64.295 74.6293 64.5085 74.6805 64.725 74.6805C64.9415 74.6805 65.155 74.6293 65.348 74.5312L104.066 52.1704C104.248 52.0518 104.398 51.8922 104.506 51.7044C104.614 51.5166 104.677 51.306 104.688 51.0896V29.8348C104.677 29.6189 104.614 29.4086 104.506 29.2213C104.398 29.034 104.248 28.8748 104.066 28.7568L103.677 28.5356C103.483 28.4381 103.269 28.3876 103.052 28.3881C102.836 28.3886 102.622 28.4401 102.428 28.5384Z" fill="black"/>
<path d="M104.691 29.8348V30.0784C104.69 29.9775 104.663 29.8785 104.612 29.7914C104.561 29.7043 104.488 29.632 104.401 29.5818C104.313 29.5317 104.214 29.5054 104.113 29.5055C104.012 29.5057 103.913 29.5324 103.826 29.5828L65.5832 51.6776C65.3214 51.8251 65.1046 52.0409 64.956 52.302V52.3216L63.276 51.35C63.3821 51.1563 63.5364 50.9933 63.724 50.8768L102.44 28.5384C102.633 28.4422 102.846 28.3922 103.063 28.3922C103.279 28.3922 103.492 28.4422 103.686 28.5384L104.075 28.7596C104.254 28.8783 104.404 29.0373 104.511 29.2241C104.617 29.4108 104.679 29.6199 104.691 29.8348Z" fill="#4F3D56"/>
<path opacity="0.45" d="M104.691 29.8348V30.0784C104.69 29.9775 104.663 29.8785 104.612 29.7914C104.561 29.7043 104.488 29.632 104.401 29.5818C104.313 29.5317 104.214 29.5054 104.113 29.5055C104.012 29.5057 103.913 29.5324 103.826 29.5828L65.5832 51.6776C65.3214 51.8251 65.1046 52.0409 64.956 52.302V52.3216L63.276 51.35C63.3821 51.1563 63.5364 50.9933 63.724 50.8768L102.44 28.5384C102.633 28.4422 102.846 28.3922 103.063 28.3922C103.279 28.3922 103.492 28.4422 103.686 28.5384L104.075 28.7596C104.254 28.8783 104.404 29.0373 104.511 29.2241C104.617 29.4108 104.679 29.6199 104.691 29.8348Z" fill="white"/>
<path d="M104.114 29.7256C104.053 29.7258 103.993 29.7422 103.94 29.7732L65.6951 51.8708C65.469 52.0014 65.2811 52.1891 65.1504 52.4152C65.0197 52.6412 64.9507 52.8977 64.9503 53.1588V73.9012C64.9503 74.0188 64.9755 74.2932 65.2023 74.2932C65.302 74.2888 65.3986 74.2579 65.4823 74.2036L85.3259 62.746L86.5663 66.1872C86.6192 66.307 86.7073 66.4079 86.8188 66.4766C86.9304 66.5453 87.0601 66.5785 87.1909 66.5718C87.3217 66.5651 87.4474 66.5189 87.5514 66.4392C87.6553 66.3596 87.7327 66.2502 87.7731 66.1256L89.4531 60.3632L103.733 52.12C104.251 51.8232 104.481 51.5208 104.481 51.1428V30.0784C104.481 30.0308 104.472 29.9835 104.453 29.9396C104.435 29.8957 104.408 29.856 104.373 29.823C104.339 29.7899 104.298 29.7643 104.254 29.7475C104.209 29.7308 104.162 29.7233 104.114 29.7256Z" fill="white"/>
<path d="M65.2023 74.5256C64.9223 74.5256 64.7291 74.2848 64.7291 73.9124V53.1588C64.7299 52.8589 64.8091 52.5644 64.9589 52.3045C65.1088 52.0447 65.3239 51.8286 65.5831 51.6776L103.828 29.5856C103.913 29.5353 104.01 29.5082 104.108 29.5072C104.256 29.5108 104.396 29.5709 104.5 29.6752C104.605 29.7794 104.665 29.9198 104.668 30.0672V51.1316C104.668 51.7364 104.176 52.0892 103.809 52.302L89.6379 60.5256L87.9831 66.2012C87.9311 66.371 87.8282 66.5208 87.6883 66.6303C87.5484 66.7398 87.3783 66.8037 87.201 66.8135C87.0236 66.8233 86.8475 66.7784 86.6965 66.6849C86.5455 66.5914 86.4267 66.4539 86.3563 66.2908L85.1999 63.0876L65.5859 74.3968C65.4719 74.4733 65.3394 74.5178 65.2023 74.5256ZM104.122 29.9636C104.1 29.9638 104.078 29.9696 104.058 29.9804L65.8155 52.0724C65.6228 52.1837 65.4626 52.3437 65.3511 52.5363C65.2395 52.7289 65.1805 52.9474 65.1799 53.17V73.9124C65.1748 73.9726 65.1874 74.033 65.2163 74.086C65.2714 74.0735 65.3243 74.0527 65.3731 74.0244L85.4463 62.4324L86.7707 66.1256C86.8057 66.2018 86.8629 66.2657 86.9349 66.3086C87.0069 66.3516 87.0903 66.3718 87.1739 66.3664C87.2602 66.3625 87.3433 66.3322 87.4119 66.2796C87.4805 66.2271 87.5313 66.1548 87.5575 66.0724L89.2599 60.2288L89.3355 60.184L103.616 51.9408C104.176 51.6188 104.254 51.364 104.254 51.1568V30.0784C104.254 30.0608 104.25 30.0433 104.242 30.0273C104.235 30.0112 104.224 29.9968 104.211 29.985C104.198 29.9732 104.183 29.9642 104.166 29.9586C104.149 29.953 104.132 29.9509 104.114 29.9524L104.122 29.9636Z" fill="#4F3D56"/>
<path d="M69.2792 58.5656C69.3038 57.8905 69.3976 57.2196 69.5592 56.5636C69.7185 55.9062 69.9504 55.2685 70.2508 54.6624C70.5453 54.0729 70.9111 53.5218 71.34 53.0216C71.7605 52.5319 72.2602 52.1164 72.8184 51.7924C73.2607 51.5088 73.7693 51.3457 74.294 51.3192C74.6925 51.3076 75.0812 51.4432 75.386 51.7C75.7135 51.9961 75.9529 52.3769 76.0776 52.8004C76.2515 53.344 76.3458 53.9098 76.3576 54.4804C76.3744 54.9732 76.3828 55.4912 76.3828 56.04C76.3828 56.5888 76.3828 57.1012 76.3576 57.5884C76.3327 58.2635 76.2389 58.9344 76.0776 59.5904C75.9192 60.2499 75.6872 60.8895 75.386 61.4972C75.0951 62.0911 74.728 62.6446 74.294 63.1436C73.8732 63.628 73.3745 64.0387 72.8184 64.3588C72.3763 64.6469 71.8668 64.8148 71.34 64.846C70.9418 64.8586 70.5533 64.7218 70.2508 64.4624C69.9237 64.1582 69.6847 63.7712 69.5592 63.3424C69.3859 62.7987 69.2916 62.2329 69.2792 61.6624C69.2652 61.1948 69.2568 60.688 69.2568 60.142C69.2568 59.596 69.2652 59.0696 69.2792 58.5656ZM74.2548 58.7112C74.2548 58.4984 74.2716 58.2604 74.28 58C74.2884 57.7396 74.28 57.4764 74.28 57.2076C74.28 56.9388 74.28 56.684 74.28 56.4376C74.28 56.1912 74.2632 55.9728 74.2548 55.7796C74.2464 55.5311 74.2069 55.2847 74.1372 55.046C74.086 54.8645 73.9896 54.6988 73.8572 54.5644C73.7393 54.4523 73.5831 54.3893 73.4204 54.388C73.2019 54.398 72.9901 54.4667 72.8072 54.5868C72.576 54.7203 72.3695 54.8927 72.1968 55.0964C72.022 55.303 71.8751 55.5318 71.76 55.7768C71.6379 56.0299 71.544 56.2956 71.48 56.5692C71.4155 56.8565 71.3752 57.1488 71.3596 57.4428C71.3456 57.6472 71.3344 57.8768 71.3316 58.1288C71.3288 58.3808 71.3316 58.6412 71.3316 58.91C71.3316 59.1788 71.3316 59.4392 71.3316 59.6912C71.3316 59.9432 71.3316 60.1728 71.3596 60.3744C71.3482 60.814 71.4864 61.2445 71.7516 61.5952C71.9812 61.8472 72.3303 61.8379 72.7988 61.5672C73.2663 61.2988 73.6331 60.8848 73.8432 60.3884C74.0804 59.8568 74.2199 59.2867 74.2548 58.7056V58.7112Z" fill="#455A64"/>
<path d="M83.4611 52.834C83.4611 53.002 83.4611 53.226 83.4611 53.4976C83.4611 53.7692 83.4611 53.9988 83.4611 54.178C83.4434 54.7568 83.3598 55.3317 83.2119 55.8916C83.0639 56.4605 82.8545 57.0116 82.5875 57.5352C82.3295 58.0461 82.0077 58.5221 81.6299 58.952C81.2718 59.3631 80.849 59.713 80.3783 59.988C80.0014 60.2279 79.5698 60.3685 79.1239 60.3968C78.7775 60.4137 78.4368 60.3031 78.1663 60.086C77.8796 59.8408 77.6648 59.5224 77.5447 59.1648C77.3833 58.7058 77.2982 58.2234 77.2927 57.7368C77.2927 57.566 77.2927 57.3448 77.2927 57.0704C77.2927 56.796 77.2927 56.572 77.2927 56.3928C77.3041 55.8161 77.384 55.2427 77.5307 54.6848C77.6799 54.1146 77.8912 53.5625 78.1607 53.0384C78.4243 52.5261 78.7476 52.0467 79.1239 51.6104C79.4806 51.1938 79.9046 50.8398 80.3783 50.5632C80.7542 50.3249 81.1854 50.1879 81.6299 50.1656C81.9778 50.1573 82.3179 50.2691 82.5931 50.482C82.883 50.7261 83.0992 51.046 83.2175 51.406C83.3731 51.8663 83.4553 52.3482 83.4611 52.834ZM79.3339 56.474C79.3563 56.9052 79.4599 57.1908 79.6447 57.3336C79.8295 57.4764 80.0759 57.4596 80.3783 57.286C80.6948 57.0973 80.9489 56.8198 81.1091 56.488C81.2999 56.1094 81.406 55.6938 81.4199 55.27C81.4339 55.088 81.4423 54.8864 81.4423 54.6652C81.4423 54.444 81.4423 54.2508 81.4199 54.0828C81.3975 53.6554 81.2939 53.3698 81.1091 53.226C80.9243 53.0832 80.6807 53.0972 80.3783 53.2736C80.0624 53.4627 79.8077 53.7388 79.6447 54.0688C79.4543 54.4486 79.3483 54.865 79.3339 55.2896C79.3199 55.4716 79.3115 55.6732 79.3115 55.8944C79.3115 56.1156 79.3199 56.306 79.3339 56.4712V56.474Z" fill="#455A64"/>
<path d="M88.0868 55.5388C87.9086 55.6488 87.7124 55.7266 87.5072 55.7684C87.3651 55.7986 87.2182 55.7986 87.076 55.7684C86.9632 55.7368 86.8589 55.6804 86.7708 55.6032C86.6939 55.5381 86.6253 55.4638 86.5664 55.382V59.1004C86.5645 59.2332 86.5339 59.3641 86.4768 59.484C86.434 59.592 86.3586 59.684 86.2612 59.7472L84.8332 60.5872C84.8013 60.6108 84.7619 60.6221 84.7223 60.619C84.6827 60.6159 84.6455 60.5987 84.6176 60.5704C84.5838 60.5326 84.5582 60.4882 84.5423 60.44C84.5264 60.3919 84.5206 60.3409 84.5252 60.2904V48.8132C84.5269 48.68 84.5584 48.5489 84.6176 48.4296C84.6605 48.3216 84.7358 48.2297 84.8332 48.1664L86.2052 47.374C86.2372 47.3504 86.2766 47.3392 86.3162 47.3422C86.3558 47.3453 86.3929 47.3626 86.4208 47.3908C86.4537 47.4291 86.4786 47.4737 86.494 47.5218C86.5094 47.5698 86.515 47.6205 86.5104 47.6708V48.074C86.5776 47.9172 86.6532 47.752 86.7316 47.5784C86.8129 47.3994 86.9113 47.2287 87.0256 47.0688C87.1532 46.8911 87.2976 46.7261 87.4568 46.576C87.6478 46.3984 87.8593 46.2442 88.0868 46.1168C88.379 45.9372 88.7085 45.827 89.05 45.7948C89.1942 45.7849 89.3389 45.8046 89.4752 45.8528C89.6115 45.901 89.7365 45.9765 89.8424 46.0748C90.1067 46.3308 90.2997 46.6512 90.4024 47.0044C90.5586 47.5392 90.6369 48.0937 90.6348 48.6508C90.6348 48.8188 90.6348 49.054 90.6348 49.3508C90.6348 49.6476 90.6348 49.8856 90.6348 50.0648C90.6253 50.7087 90.5474 51.3498 90.4024 51.9772C90.2727 52.5176 90.085 53.0424 89.8424 53.5424C89.6349 53.9774 89.3682 54.3816 89.05 54.7436C88.7724 55.0573 88.4474 55.3256 88.0868 55.5388ZM88.5964 51.0196C88.6188 50.6943 88.6188 50.3678 88.5964 50.0424C88.5954 49.72 88.5053 49.4041 88.336 49.1296C88.1848 48.914 87.93 48.9084 87.5744 49.1128C87.41 49.2097 87.2648 49.3359 87.146 49.4852C87.0251 49.6373 86.9235 49.8037 86.8436 49.9808C86.7653 50.1615 86.7035 50.349 86.6588 50.5408C86.6124 50.7246 86.5815 50.9119 86.5664 51.1008C86.5524 51.2828 86.544 51.4928 86.544 51.7252C86.544 51.9576 86.544 52.1564 86.5664 52.3216C86.5782 52.4761 86.6093 52.6285 86.6588 52.7752C86.6968 52.8995 86.7597 53.0148 86.8436 53.114C86.922 53.2 87.0301 53.253 87.146 53.2624C87.2983 53.2649 87.4477 53.2209 87.5744 53.1364C87.9252 52.9373 88.1948 52.6211 88.336 52.2432C88.4878 51.8519 88.5757 51.4388 88.5964 51.0196Z" fill="#455A64"/>
<path d="M95.0447 48.6228C95.0447 48.494 95.0167 48.4128 94.9607 48.3736C94.8707 48.3386 94.7708 48.3386 94.6807 48.3736C94.4974 48.4199 94.317 48.4769 94.1403 48.5444C93.9191 48.6256 93.6419 48.718 93.3003 48.8244C92.7254 48.9924 92.283 48.9215 91.9731 48.6116C91.6623 48.3036 91.5083 47.752 91.5083 46.9624C91.5106 46.5508 91.5758 46.142 91.7015 45.75C91.834 45.3303 92.0144 44.9272 92.2391 44.5488C92.4755 44.1558 92.7575 43.7921 93.0791 43.4652C93.4024 43.1371 93.7688 42.8545 94.1683 42.6252C94.5005 42.4198 94.8695 42.281 95.2547 42.2164C95.5429 42.1649 95.8393 42.186 96.1171 42.278C96.3487 42.3634 96.5455 42.5229 96.6771 42.7316C96.8203 42.9555 96.9005 43.2137 96.9095 43.4792C96.916 43.6114 96.887 43.7428 96.8255 43.86C96.7818 43.9736 96.7047 44.0712 96.6043 44.14L95.2547 44.9184C95.1707 44.966 95.1063 44.9772 95.0559 44.9464C95.0002 44.9125 94.9422 44.8826 94.8823 44.8568C94.798 44.8231 94.7069 44.8097 94.6163 44.8176C94.4519 44.8425 94.295 44.9037 94.1571 44.9968C93.9903 45.0901 93.8422 45.2135 93.7203 45.3608C93.6068 45.4934 93.5442 45.6622 93.5439 45.8368C93.533 45.9337 93.5525 46.0316 93.5999 46.1168C93.6391 46.1635 93.7147 46.1747 93.8267 46.1504C93.9878 46.1113 94.1467 46.0636 94.3027 46.0076C94.5071 45.9348 94.7759 45.8452 95.1091 45.7276C95.7951 45.5064 96.2963 45.5736 96.6099 45.9348C96.9545 46.3893 97.1217 46.9536 97.0803 47.5224C97.0774 47.9358 97.0123 48.3464 96.8871 48.7404C96.753 49.1739 96.5649 49.5887 96.3271 49.9752C96.07 50.3907 95.7656 50.775 95.4199 51.1204C95.0579 51.4809 94.6503 51.7924 94.2075 52.0472C93.8423 52.2748 93.4362 52.4288 93.0119 52.5008C92.7189 52.5492 92.4181 52.5143 92.1439 52.4C91.9166 52.2975 91.7282 52.1248 91.6063 51.9072C91.4786 51.683 91.4065 51.4314 91.3963 51.1736C91.3896 51.0414 91.4186 50.9099 91.4803 50.7928C91.5241 50.6793 91.6012 50.5817 91.7015 50.5128L93.1015 49.7008C93.1855 49.6532 93.2443 49.6504 93.2835 49.7008C93.3265 49.7481 93.3754 49.7895 93.4291 49.824C93.5077 49.8701 93.5987 49.8907 93.6895 49.8828C93.8735 49.8574 94.049 49.7894 94.2019 49.684C94.4226 49.5574 94.6212 49.3957 94.7899 49.2052C94.9479 49.052 95.0394 48.8428 95.0447 48.6228Z" fill="#455A64"/>
<path d="M100.166 44.1708C100.164 44.3036 100.133 44.4345 100.076 44.5544C100.033 44.6624 99.9582 44.7544 99.8607 44.8176L98.4327 45.6436C98.4008 45.6672 98.3614 45.6785 98.3218 45.6754C98.2822 45.6723 98.245 45.6551 98.2171 45.6268C98.1837 45.5889 98.1585 45.5444 98.143 45.4962C98.1276 45.448 98.1223 45.3972 98.1275 45.3468V37.826C98.1278 37.693 98.1585 37.5618 98.2171 37.4424C98.26 37.3345 98.3353 37.2425 98.4327 37.1792L99.8607 36.3392C99.8927 36.3156 99.9321 36.3044 99.9717 36.3074C100.011 36.3105 100.048 36.3278 100.076 36.356C100.109 36.3943 100.134 36.4388 100.15 36.4869C100.165 36.535 100.171 36.5857 100.166 36.636V44.1708ZM100.166 47.9228C100.164 48.0557 100.134 48.1866 100.076 48.3064C100.033 48.4144 99.9582 48.5064 99.8607 48.5696L98.4327 49.3956C98.4008 49.4192 98.3614 49.4305 98.3218 49.4274C98.2822 49.4243 98.245 49.4071 98.2171 49.3788C98.1835 49.341 98.1582 49.2965 98.1428 49.2483C98.1274 49.2001 98.1222 49.1492 98.1275 49.0988V47.3348C98.1278 47.2018 98.1585 47.0706 98.2171 46.9512C98.26 46.8433 98.3353 46.7513 98.4327 46.688L99.8607 45.848C99.8927 45.8244 99.9321 45.8132 99.9717 45.8162C100.011 45.8193 100.048 45.8366 100.076 45.8648C100.109 45.9031 100.134 45.9477 100.149 45.9958C100.165 46.0438 100.17 46.0945 100.166 46.1448V47.9228Z" fill="#455A64"/>
<path d="M45.1795 56.964C45.3882 57.3695 45.5426 57.8006 45.6387 58.2464C45.8459 59.3496 45.4483 60.4612 45.2271 61.5588C45.1543 61.9312 45.1291 62.2728 45.3951 62.564C45.4187 62.5963 45.4501 62.6221 45.4863 62.6392C45.5224 62.6563 45.5623 62.6642 45.6023 62.662C45.6695 62.6452 45.7143 62.578 45.7507 62.5192C46.0148 62.0674 46.2253 61.5863 46.3779 61.0856C46.4083 61.5592 46.3924 62.0347 46.3303 62.5052C46.2486 62.8741 46.2486 63.2563 46.3303 63.6252C46.4479 63.9836 46.8511 64.272 47.1703 64.0956C47.3668 63.9463 47.4998 63.7283 47.5427 63.4852L47.8031 62.6452C47.9308 62.2548 48.0364 61.8575 48.1195 61.4552C48.2526 60.7301 48.2413 59.9858 48.0861 59.265C47.9309 58.5443 47.6349 57.8613 47.2151 57.2552C47.0123 56.9294 46.721 56.6681 46.3751 56.502C46.2121 56.4372 46.0369 56.4089 45.8617 56.419C45.6866 56.4292 45.5159 56.4776 45.3615 56.5608C45.1459 56.6784 45.0759 56.754 45.1795 56.964Z" fill="#F28F8F"/>
<path d="M48.7634 58.8904C48.643 57.4204 48.5926 55.8804 48.3182 54.4888C48.0438 53.0972 47.4614 47.7464 47.1982 46.2596C46.8538 44.2996 46.3862 43.0732 46.1006 41.8608C45.7786 40.5056 45.5098 38.652 44.9414 35.7008C44.373 32.7496 43.6758 31.0976 42.217 30.1456C41.1429 29.4168 39.875 29.0267 38.577 29.0256C38.2466 29.9328 38.5518 33.108 38.5518 33.108C38.5518 33.108 39.9518 39.8784 40.103 40.71C40.2542 41.5416 41.7522 45.3468 42.7546 48.4436C43.3286 50.2216 44.1966 52.722 44.1966 52.722C44.4598 53.828 44.5522 54.1808 44.331 55.0572C44.2386 55.4268 44.0902 55.7796 43.9978 56.1492C43.8972 56.5521 43.8353 56.9637 43.813 57.3784C43.799 57.6584 43.813 57.9384 43.7878 58.2184C43.7626 58.7364 43.6786 59.2516 43.617 59.7668C43.575 60.1448 43.7934 60.3772 44.177 60.2596C44.4539 60.1534 44.6795 59.9449 44.807 59.6772C44.9678 59.2981 45.0797 58.9001 45.1402 58.4928C45.185 58.2996 45.4202 57.1376 45.787 57.454C46.1006 57.72 46.4338 58.6272 46.8454 59.2432C47.0682 59.514 47.2329 59.8278 47.3292 60.165C47.4256 60.5022 47.4515 60.8556 47.4054 61.2032C47.3354 62.1412 46.8874 63.3956 47.0386 64.188C47.1898 64.9804 47.6322 65.1512 47.7918 64.8236C47.9514 64.496 48.4358 62.5836 48.5982 61.92C48.8187 60.926 48.8745 59.9025 48.7634 58.8904Z" fill="#FFA8A7"/>
<path d="M45.1318 57.8488C46.837 58.5992 48.9622 59.008 49.8918 62.648C50.8214 66.288 51.9218 79.6636 51.9218 79.6636C51.4785 80.2227 50.912 80.6717 50.2665 80.9758C49.621 81.2798 48.914 81.4306 48.2006 81.4164L48.3518 85.2328C48.3518 85.2328 45.8598 86.4312 42.147 85.4932C40.3466 85.0396 39.2378 83.3932 39.2378 83.3932C39.2378 83.3932 39.6606 72.5936 39.9546 68.4692C40.2486 64.3448 40.6238 55.8356 45.1318 57.8488Z" fill="#404258"/>
<path d="M47.5986 66.7276C47.5986 66.7276 48.0522 77.6476 48.2006 81.4164C48.615 81.4167 49.0279 81.3659 49.4298 81.2652L47.5986 66.7276Z" fill="#37474F"/>
<path d="M43.7823 58.21C43.7571 58.728 43.6731 59.2432 43.6115 59.7584C43.5695 60.1364 43.7879 60.3688 44.1715 60.2512C44.4484 60.145 44.6739 59.9365 44.8015 59.6688C44.9622 59.2897 45.0742 58.8917 45.1347 58.4844C45.1683 58.336 45.3111 57.622 45.5435 57.4372L43.8103 57.3728C43.7935 57.65 43.7963 57.93 43.7823 58.21ZM45.5407 57.4372H45.7787C45.7627 57.4217 45.7438 57.4096 45.723 57.4017C45.7022 57.3937 45.6801 57.39 45.6579 57.3907C45.6356 57.3915 45.6138 57.3968 45.5937 57.4062C45.5735 57.4156 45.5555 57.429 45.5407 57.4456V57.4372Z" fill="#FFA8A7"/>
<path d="M40.1451 28.8268C42.9087 29.9636 43.7851 30.8792 44.3199 32.5536C44.8547 34.228 45.6975 38.4616 45.9747 40.3012C46.2519 42.1408 46.9462 43.7956 47.3327 46.2008C47.7191 48.606 48.0999 52.1256 48.0999 52.1256C48.0999 52.1256 47.5987 52.7696 46.0867 52.8592C44.5747 52.9488 43.7878 52.4028 43.7878 52.4028C43.7878 52.4028 42.1807 47.6008 41.5731 45.9964C40.9655 44.392 39.5739 40.3964 39.5739 40.3964L40.1451 28.8268Z" fill="#E6E6E6"/>
<path d="M16.5018 95.6516L18.347 96.2172L18.6242 94.8872L17.1122 95.03L16.5018 95.6516Z" fill="black"/>
<path d="M17.0059 91.9332C17.0059 91.9332 16.2331 92.8208 15.9951 93.1036C15.7571 93.3864 16.3059 95.2624 16.4991 95.6516L17.1095 95.03C17.1711 95.5032 17.0703 95.968 16.9723 96.6932C16.8911 97.2952 16.5887 98.3228 16.8351 99.3728C17.2019 100.932 18.4199 102.517 19.9403 103.777C21.4607 105.037 22.6479 105.34 23.3535 105.345C24.0591 105.351 24.5043 105.065 24.6975 104.578C24.8907 104.091 17.0059 91.9332 17.0059 91.9332Z" fill="#263238"/>
<path d="M23.6363 91.9724L24.0731 91.446C24.3671 91.6588 23.7931 92.468 23.6895 93.4788C23.5083 94.9759 23.5206 96.49 23.7259 97.984C24.1991 100.647 24.9131 102.643 25.1259 103.836C25.4059 105.435 22.6759 105.538 20.2371 103.433C19.0247 102.386 17.2663 100.02 17.2103 98.7848C17.1543 97.55 17.6639 96.0856 17.5743 95.1448C17.4847 94.204 16.8239 92.8264 17.0143 91.9248C17.1207 91.4292 17.8543 90.6536 18.5207 90.0124C19.1227 89.4272 19.6407 88.1588 19.9403 88.5256L19.7163 88.9624C19.6463 89.3684 19.9123 90.312 20.7999 91.2696C21.2367 91.7568 22.7235 92.972 23.6363 91.9724Z" fill="#455A64"/>
<path opacity="0.15" d="M21.5923 91.936C22.1131 92.2692 22.7599 92.51 23.3031 92.23C23.3031 92.23 23.3171 92.23 23.3227 92.23C23.1509 92.3955 23.0192 92.5981 22.9376 92.8223C22.8561 93.0465 22.8269 93.2864 22.8523 93.5236C22.8971 94.4084 22.8803 100.389 22.8803 100.389C22.8803 100.389 22.6003 95.2204 22.5247 94.2292C22.4295 92.7788 22.2671 92.4932 21.5895 91.9332L21.5923 91.936Z" fill="black"/>
<path d="M25.1258 103.836C24.9522 102.828 24.4146 101.246 23.9666 99.174C23.905 99.8152 24.0422 100.454 23.9666 100.627C23.7958 101.058 22.3678 100.742 21.5978 100.42C20.8278 100.098 20.811 98.6252 20.5058 97.06C20.2006 95.4948 18.627 95.8336 17.4258 96.7492C17.2849 97.4138 17.2145 98.0914 17.2158 98.7708C17.2718 100.006 19.0302 102.372 20.2426 103.419C22.6702 105.538 25.4058 105.435 25.1258 103.836Z" fill="#37474F"/>
<path opacity="0.15" d="M21.4606 93.4228C21.433 93.4498 21.3981 93.4681 21.3602 93.4753C21.3223 93.4826 21.2831 93.4784 21.2475 93.4635C21.2119 93.4485 21.1816 93.4234 21.1602 93.3913C21.1388 93.3591 21.1274 93.3214 21.1274 93.2828C21.1274 93.2442 21.1388 93.2065 21.1602 93.1743C21.1816 93.1422 21.2119 93.117 21.2475 93.1021C21.2831 93.0871 21.3223 93.083 21.3602 93.0903C21.3981 93.0975 21.433 93.1158 21.4606 93.1428C21.4792 93.161 21.494 93.1828 21.5041 93.2069C21.5142 93.2309 21.5194 93.2567 21.5194 93.2828C21.5194 93.3089 21.5142 93.3347 21.5041 93.3587C21.494 93.3828 21.4792 93.4045 21.4606 93.4228Z" fill="black"/>
<path opacity="0.15" d="M21.5727 94.834C21.5451 94.861 21.5102 94.8793 21.4723 94.8865C21.4344 94.8938 21.3952 94.8896 21.3596 94.8747C21.324 94.8597 21.2936 94.8346 21.2723 94.8025C21.2509 94.7703 21.2395 94.7326 21.2395 94.694C21.2395 94.6554 21.2509 94.6177 21.2723 94.5855C21.2936 94.5534 21.324 94.5283 21.3596 94.5133C21.3952 94.4984 21.4344 94.4942 21.4723 94.5015C21.5102 94.5087 21.5451 94.527 21.5727 94.554C21.5913 94.5722 21.6061 94.594 21.6162 94.6181C21.6263 94.6421 21.6315 94.6679 21.6315 94.694C21.6315 94.7201 21.6263 94.7459 21.6162 94.7699C21.6061 94.794 21.5913 94.8157 21.5727 94.834Z" fill="black"/>
<path opacity="0.15" d="M21.6847 96.2452C21.6663 96.2636 21.6445 96.2782 21.6204 96.2881C21.5964 96.2981 21.5707 96.3032 21.5447 96.3032C21.5187 96.3032 21.4929 96.2981 21.4689 96.2881C21.4449 96.2782 21.4231 96.2636 21.4047 96.2452C21.3863 96.2268 21.3717 96.205 21.3618 96.181C21.3518 96.1569 21.3467 96.1312 21.3467 96.1052C21.3467 96.0792 21.3518 96.0534 21.3618 96.0294C21.3717 96.0054 21.3863 95.9836 21.4047 95.9652C21.4419 95.9283 21.4922 95.9075 21.5447 95.9075C21.5971 95.9075 21.6474 95.9283 21.6847 95.9652C21.7033 95.9834 21.7181 96.0052 21.7282 96.0293C21.7383 96.0533 21.7435 96.0791 21.7435 96.1052C21.7435 96.1313 21.7383 96.1571 21.7282 96.1811C21.7181 96.2052 21.7033 96.2269 21.6847 96.2452Z" fill="black"/>
<path opacity="0.15" d="M21.7995 97.6564C21.7623 97.6933 21.712 97.7141 21.6595 97.7141C21.6071 97.7141 21.5568 97.6933 21.5195 97.6564C21.5009 97.6381 21.4861 97.6164 21.476 97.5923C21.4659 97.5683 21.4607 97.5425 21.4607 97.5164C21.4607 97.4903 21.4659 97.4645 21.476 97.4405C21.4861 97.4164 21.5009 97.3946 21.5195 97.3764C21.5567 97.3393 21.607 97.3184 21.6595 97.3184C21.712 97.3184 21.7624 97.3393 21.7995 97.3764C21.8367 97.4135 21.8575 97.4639 21.8575 97.5164C21.8575 97.5689 21.8367 97.6193 21.7995 97.6564Z" fill="black"/>
<path opacity="0.15" d="M21.9115 99.0704C21.8742 99.1073 21.8239 99.128 21.7715 99.128C21.719 99.128 21.6687 99.1073 21.6315 99.0704C21.6128 99.0521 21.598 99.0304 21.5879 99.0063C21.5778 98.9823 21.5726 98.9565 21.5726 98.9304C21.5726 98.9043 21.5778 98.8785 21.5879 98.8545C21.598 98.8304 21.6128 98.8086 21.6315 98.7904C21.6696 98.7586 21.7182 98.7422 21.7678 98.7445C21.8173 98.7467 21.8643 98.7674 21.8994 98.8025C21.9344 98.8376 21.9551 98.8845 21.9574 98.9341C21.9596 98.9837 21.9432 99.0323 21.9115 99.0704Z" fill="black"/>
<path d="M21.2674 93.3444C21.2599 93.3389 21.2537 93.3317 21.2494 93.3235C21.245 93.3152 21.2426 93.3061 21.2422 93.2968C21.2407 93.2865 21.2412 93.276 21.2437 93.2658C21.2462 93.2557 21.2508 93.2462 21.257 93.2379C21.2633 93.2295 21.2711 93.2225 21.2801 93.2173C21.2891 93.212 21.2991 93.2086 21.3094 93.2072C21.3654 93.2072 22.673 93.056 23.611 93.868C23.627 93.8817 23.6369 93.9012 23.6384 93.9223C23.64 93.9433 23.6332 93.964 23.6194 93.98C23.6057 93.996 23.5862 94.0058 23.5652 94.0074C23.5442 94.009 23.5234 94.0021 23.5074 93.9884C22.6226 93.2212 21.343 93.364 21.329 93.364C21.318 93.3668 21.3063 93.3664 21.2955 93.3629C21.2846 93.3595 21.2749 93.353 21.2674 93.3444Z" fill="#263238"/>
<path d="M21.3823 94.7556C21.375 94.7493 21.3689 94.7416 21.3646 94.7329C21.3603 94.7243 21.3577 94.7149 21.3571 94.7052C21.3555 94.695 21.356 94.6847 21.3586 94.6747C21.3612 94.6648 21.3657 94.6555 21.372 94.6473C21.3783 94.6392 21.3862 94.6325 21.3952 94.6275C21.4042 94.6225 21.4141 94.6194 21.4243 94.6184C21.4803 94.6184 22.7879 94.4644 23.7259 95.2764C23.7419 95.2901 23.7517 95.3096 23.7533 95.3307C23.7549 95.3517 23.748 95.3724 23.7343 95.3884C23.7206 95.4044 23.701 95.4142 23.68 95.4158C23.659 95.4174 23.6383 95.4105 23.6223 95.3968C22.7375 94.6296 21.4579 94.7724 21.4439 94.7752C21.4328 94.7765 21.4216 94.7754 21.411 94.772C21.4004 94.7687 21.3906 94.7631 21.3823 94.7556Z" fill="#263238"/>
<path d="M21.4859 96.1696C21.4722 96.156 21.4633 96.1383 21.4607 96.1192C21.4592 96.109 21.4597 96.0987 21.4622 96.0887C21.4648 96.0788 21.4694 96.0695 21.4757 96.0613C21.4819 96.0532 21.4898 96.0465 21.4988 96.0415C21.5078 96.0365 21.5177 96.0334 21.5279 96.0324C21.5839 96.0324 22.8915 95.8784 23.8295 96.6904C23.8455 96.7041 23.8554 96.7236 23.8569 96.7446C23.8585 96.7656 23.8517 96.7864 23.8379 96.8024C23.8242 96.8183 23.8047 96.8282 23.7837 96.8298C23.7627 96.8314 23.7419 96.8245 23.7259 96.8108C22.8411 96.0436 21.5615 96.1864 21.5475 96.1892C21.5365 96.1903 21.5253 96.1892 21.5147 96.1858C21.5041 96.1824 21.4943 96.1769 21.4859 96.1696Z" fill="#263238"/>
<path d="M21.6035 97.5808C21.5897 97.5673 21.5809 97.5495 21.5783 97.5304C21.5759 97.51 21.5816 97.4895 21.5942 97.4733C21.6067 97.457 21.6252 97.4464 21.6455 97.4436C21.7015 97.4436 23.0091 97.2896 23.9471 98.1016C23.9615 98.1167 23.9695 98.1367 23.9695 98.1576C23.9695 98.1784 23.9615 98.1985 23.9471 98.2136C23.9398 98.221 23.9311 98.227 23.9215 98.231C23.9118 98.235 23.9015 98.2371 23.8911 98.2371C23.8807 98.2371 23.8703 98.235 23.8607 98.231C23.8511 98.227 23.8424 98.221 23.8351 98.2136C22.9503 97.4464 21.6707 97.5892 21.6567 97.592C21.6382 97.5945 21.6194 97.5905 21.6035 97.5808Z" fill="#263238"/>
<path d="M21.7155 98.992C21.7017 98.9785 21.6929 98.9607 21.6903 98.9416C21.6887 98.9312 21.6893 98.9206 21.6921 98.9105C21.6948 98.9004 21.6996 98.8909 21.7062 98.8828C21.7128 98.8746 21.721 98.8679 21.7303 98.8631C21.7396 98.8583 21.7498 98.8554 21.7603 98.8548C21.8135 98.8548 23.1211 98.7008 24.0591 99.5128C24.0733 99.5274 24.0812 99.547 24.0812 99.5674C24.0812 99.5878 24.0733 99.6074 24.0591 99.622C24.0518 99.6294 24.0431 99.6353 24.0335 99.6394C24.0239 99.6434 24.0135 99.6455 24.0031 99.6455C23.9927 99.6455 23.9824 99.6434 23.9727 99.6394C23.9631 99.6353 23.9544 99.6294 23.9471 99.622C23.0651 98.8576 21.7827 98.9976 21.7687 99.0004C21.7505 99.0037 21.7318 99.0008 21.7155 98.992Z" fill="#263238"/>
<path d="M42.4186 51.1428C42.4186 51.1428 42.6202 54.64 42.4466 61.9116C42.301 67.996 42.973 71.1516 40.5314 75.0268C38.3502 78.4848 24.7366 91.6952 23.7538 92.8936C23.7538 92.8936 19.4446 93.2856 19.2346 88.87C19.2346 88.87 23.247 81.7048 25.1398 77.642C27.0326 73.5792 29.6198 71.6304 29.6198 71.6304L26.0834 53.9176L42.4186 51.1428Z" fill="#474E68"/>
<path d="M27.587 53.6628L26.0918 53.9148V53.9792L29.4994 71.0592L29.6142 71.4876H29.5862L29.6142 71.6192C29.6142 71.6192 27.7746 73.0192 26.061 75.8864C26.6658 77.432 27.853 80.1256 27.853 80.1256C27.9594 80.5428 26.7554 82.2508 27.4414 87.3916C27.4918 87.7612 27.5814 88.2988 27.685 88.8784C30.7482 85.7816 34.9258 81.5676 37.7258 78.4456C37.863 77.642 38.2858 74.996 38.0394 72.9744C37.793 70.9528 36.8858 61.0352 36.8858 61.0352C37.762 60.4874 38.529 59.782 39.1482 58.9548C39.6722 58.283 40.0335 57.4991 40.2038 56.6644C40.6744 55.3372 41.0624 53.9822 41.3658 52.6072L27.587 53.6628Z" fill="black"/>
<path d="M32.9603 110.172L34.7943 109.57L34.2567 108.324L33.1003 109.31L32.9603 110.172Z" fill="black"/>
<path d="M31.2355 106.835C31.2355 106.835 31.1123 108.008 31.0815 108.378C31.0507 108.747 32.5767 109.965 32.9603 110.172L33.1003 109.31C33.4251 109.663 33.6071 110.1 33.9403 110.749C34.2203 111.29 34.5647 112.306 35.3711 113.02C36.5667 114.084 38.4763 114.68 40.4419 114.837C42.4075 114.994 43.5583 114.557 44.1379 114.154C44.7175 113.751 44.9135 113.258 44.7959 112.754C44.6783 112.25 31.2355 106.835 31.2355 106.835Z" fill="#263238"/>
<path d="M36.6787 103.055L36.7319 102.374C37.0959 102.374 37.0959 103.368 37.5887 104.256C38.2523 105.452 39.2351 106.955 40.2095 107.921C42.1275 109.828 43.8495 111.049 44.7175 111.906C45.8655 113.054 43.6927 114.706 40.4867 114.389C38.8935 114.23 36.0935 113.306 35.3375 112.328C34.5815 111.351 34.1531 109.859 33.5455 109.148C32.9379 108.436 31.5855 107.686 31.2355 106.835C31.0367 106.37 31.1991 105.309 31.3671 104.407C31.5239 103.567 31.2075 102.251 31.6723 102.374L31.7423 102.859C31.9187 103.231 32.6747 103.85 33.9543 104.124C34.5927 104.259 36.5051 104.399 36.6787 103.055Z" fill="#455A64"/>
<path opacity="0.15" d="M34.9847 104.206C35.6007 104.178 36.2727 104.004 36.5527 103.461V103.444C36.5069 103.678 36.5153 103.919 36.5775 104.149C36.6396 104.379 36.7537 104.592 36.9111 104.771C37.4711 105.468 40.8871 110.371 40.8871 110.371C40.8871 110.371 37.6755 106.314 37.0567 105.55C36.1467 104.43 35.8471 104.278 34.9707 104.208L34.9847 104.206Z" fill="black"/>
<path d="M44.7259 111.906C44.0035 111.18 42.6539 110.198 41.0859 108.761C41.4079 109.321 41.8867 109.764 41.9259 109.946C42.0323 110.396 40.6827 110.959 39.8679 111.138C39.0531 111.318 38.1879 110.125 37.0483 109.03C35.9087 107.935 34.8083 109.108 34.3435 110.553C34.6105 111.178 34.9427 111.773 35.3347 112.328C36.0907 113.306 38.8907 114.23 40.4839 114.389C43.6927 114.706 45.8655 113.054 44.7259 111.906Z" fill="#37474F"/>
<path opacity="0.15" d="M35.735 105.494C35.7272 105.545 35.6993 105.592 35.6573 105.623C35.6152 105.654 35.5626 105.667 35.511 105.659C35.4594 105.651 35.413 105.623 35.382 105.581C35.3511 105.539 35.338 105.486 35.3458 105.435C35.3492 105.409 35.3578 105.384 35.371 105.362C35.3842 105.339 35.4018 105.32 35.4227 105.305C35.4436 105.289 35.4674 105.278 35.4927 105.272C35.518 105.266 35.5442 105.265 35.5698 105.27C35.6212 105.278 35.6673 105.306 35.6982 105.348C35.7291 105.39 35.7423 105.442 35.735 105.494Z" fill="black"/>
<path opacity="0.15" d="M36.6366 106.583C36.6332 106.609 36.6247 106.633 36.6115 106.656C36.5983 106.678 36.5807 106.698 36.5598 106.713C36.5388 106.728 36.515 106.739 36.4898 106.745C36.4645 106.752 36.4382 106.752 36.4126 106.748C36.3744 106.742 36.3388 106.725 36.3102 106.699C36.2817 106.673 36.2616 106.639 36.2524 106.601C36.2431 106.563 36.2452 106.524 36.2584 106.488C36.2716 106.451 36.2952 106.42 36.3264 106.397C36.3575 106.374 36.3948 106.36 36.4334 106.359C36.4721 106.357 36.5104 106.366 36.5436 106.386C36.5767 106.406 36.6033 106.435 36.6198 106.47C36.6364 106.505 36.6422 106.544 36.6366 106.583Z" fill="black"/>
<path opacity="0.15" d="M37.541 107.675C37.5329 107.726 37.5045 107.773 37.4623 107.803C37.42 107.834 37.3673 107.847 37.3156 107.839C37.264 107.83 37.2178 107.802 37.1871 107.76C37.1563 107.718 37.1437 107.665 37.1518 107.613C37.1608 107.562 37.1895 107.515 37.2318 107.485C37.2741 107.454 37.3268 107.441 37.3786 107.448C37.4043 107.452 37.4288 107.461 37.4509 107.475C37.473 107.488 37.4921 107.506 37.5072 107.527C37.5223 107.549 37.5331 107.572 37.5389 107.598C37.5447 107.623 37.5454 107.649 37.541 107.675Z" fill="black"/>
<path opacity="0.15" d="M38.4455 108.764C38.4373 108.816 38.409 108.862 38.3667 108.893C38.3244 108.923 38.2717 108.936 38.2201 108.928C38.1684 108.92 38.1222 108.891 38.0915 108.849C38.0608 108.807 38.0481 108.754 38.0563 108.702C38.0603 108.677 38.0693 108.652 38.0829 108.63C38.0964 108.608 38.1141 108.589 38.135 108.574C38.156 108.559 38.1797 108.548 38.2048 108.542C38.23 108.536 38.2561 108.535 38.2817 108.539C38.3072 108.543 38.3317 108.552 38.3538 108.565C38.3758 108.579 38.395 108.596 38.4102 108.617C38.4254 108.638 38.4364 108.662 38.4424 108.687C38.4485 108.712 38.4495 108.738 38.4455 108.764Z" fill="black"/>
<path opacity="0.15" d="M39.3499 109.853C39.3439 109.891 39.3268 109.927 39.3007 109.956C39.2745 109.984 39.2405 110.004 39.2029 110.013C39.1653 110.023 39.1259 110.021 39.0895 110.007C39.0531 109.994 39.0214 109.971 38.9985 109.939C38.9755 109.908 38.9623 109.871 38.9604 109.832C38.9586 109.794 38.9682 109.755 38.9882 109.722C39.0081 109.689 39.0374 109.663 39.0723 109.646C39.1073 109.629 39.1464 109.624 39.1847 109.629C39.2103 109.633 39.2349 109.642 39.2571 109.655C39.2793 109.668 39.2986 109.686 39.314 109.707C39.3293 109.728 39.3404 109.751 39.3466 109.776C39.3527 109.802 39.3539 109.828 39.3499 109.853Z" fill="black"/>
<path d="M35.5307 105.544C35.5108 105.542 35.4927 105.532 35.4803 105.516C35.4659 105.501 35.4579 105.481 35.4579 105.46C35.4579 105.439 35.4659 105.419 35.4803 105.404C35.5223 105.368 36.5079 104.497 37.7427 104.62C37.753 104.621 37.763 104.624 37.7721 104.629C37.7812 104.634 37.7893 104.641 37.7958 104.649C37.8023 104.657 37.8072 104.666 37.8101 104.676C37.813 104.686 37.8138 104.696 37.8127 104.707C37.8106 104.728 37.8003 104.747 37.7841 104.761C37.7679 104.774 37.747 104.781 37.7259 104.78C36.5611 104.662 35.5951 105.513 35.5867 105.522C35.5712 105.535 35.5514 105.543 35.5307 105.544Z" fill="#263238"/>
<path d="M36.4351 106.628C36.4253 106.627 36.4157 106.625 36.407 106.621C36.3983 106.616 36.3906 106.61 36.3847 106.602C36.3703 106.587 36.3623 106.567 36.3623 106.546C36.3623 106.526 36.3703 106.505 36.3847 106.49C36.4267 106.454 37.4123 105.583 38.6471 105.706C38.6574 105.707 38.6674 105.711 38.6765 105.715C38.6857 105.72 38.6937 105.727 38.7002 105.735C38.7067 105.743 38.7116 105.753 38.7145 105.762C38.7174 105.772 38.7183 105.783 38.7171 105.793C38.715 105.814 38.7047 105.834 38.6885 105.847C38.6723 105.861 38.6514 105.868 38.6303 105.866C37.4683 105.748 36.4995 106.6 36.4911 106.608C36.4837 106.615 36.4748 106.62 36.4652 106.624C36.4555 106.627 36.4453 106.628 36.4351 106.628Z" fill="#263238"/>
<path d="M37.3367 107.722C37.3184 107.72 37.3015 107.711 37.2891 107.697C37.2813 107.69 37.275 107.681 37.2708 107.672C37.2665 107.662 37.2643 107.652 37.2643 107.641C37.2643 107.631 37.2665 107.62 37.2708 107.611C37.275 107.601 37.2813 107.592 37.2891 107.585C37.3311 107.549 38.3139 106.675 39.5487 106.801C39.5695 106.803 39.5885 106.814 39.6017 106.83C39.6148 106.846 39.6209 106.867 39.6187 106.888C39.6165 106.909 39.6061 106.928 39.5898 106.941C39.5735 106.954 39.5527 106.96 39.5319 106.958C38.3671 106.84 37.4011 107.694 37.3927 107.703C37.3772 107.716 37.3572 107.723 37.3367 107.722Z" fill="#263238"/>
<path d="M38.2411 108.812C38.2227 108.809 38.2058 108.8 38.1935 108.786C38.186 108.779 38.1801 108.77 38.176 108.761C38.172 108.751 38.1699 108.741 38.1699 108.73C38.1699 108.72 38.172 108.71 38.176 108.7C38.1801 108.69 38.186 108.682 38.1935 108.674C38.2327 108.638 39.2183 107.764 40.4531 107.89C40.4734 107.893 40.4918 107.904 40.5044 107.92C40.5169 107.936 40.5226 107.957 40.5203 107.977C40.5196 107.988 40.5168 107.998 40.5119 108.007C40.5071 108.016 40.5004 108.025 40.4923 108.031C40.4841 108.038 40.4747 108.043 40.4645 108.045C40.4544 108.048 40.4438 108.049 40.4335 108.047C39.2715 107.93 38.3055 108.784 38.2943 108.792C38.2871 108.799 38.2788 108.804 38.2696 108.807C38.2605 108.811 38.2508 108.812 38.2411 108.812Z" fill="#263238"/>
<path d="M39.1454 109.901C39.1357 109.901 39.1261 109.898 39.1173 109.894C39.1086 109.89 39.101 109.883 39.095 109.876C39.0807 109.86 39.0726 109.84 39.0726 109.82C39.0726 109.799 39.0807 109.779 39.095 109.764C39.1342 109.727 40.1198 108.856 41.3546 108.98C41.375 108.982 41.3934 108.993 41.406 109.009C41.4185 109.025 41.4242 109.046 41.4218 109.066C41.4211 109.077 41.4183 109.087 41.4135 109.097C41.4087 109.106 41.4021 109.115 41.394 109.121C41.3859 109.128 41.3765 109.133 41.3663 109.136C41.3562 109.139 41.3456 109.14 41.335 109.139C40.173 109.022 39.207 109.873 39.1958 109.881C39.1822 109.894 39.1641 109.901 39.1454 109.901Z" fill="#263238"/>
<path d="M22.8159 50.0144C22.8159 50.0144 22.7179 54.4944 22.7375 56.5048C22.7767 60.632 23.5775 62.3316 24.5967 65.8036C25.4367 68.6204 28.8163 78.9636 29.0767 79.9632C28.7183 82.1472 28.3403 84.0792 29.0767 88.8476C30.1323 95.73 31.3167 103.903 31.3167 103.903C31.9467 104.777 36.2419 105.093 37.4907 103.828C37.4907 103.828 37.8603 81.8084 37.7259 77.3088C37.6111 73.3888 35.7855 60.5732 35.7855 60.5732C35.7855 60.5732 41.6375 58.112 42.1415 51.2268L22.8159 50.0144Z" fill="#474E68"/>
<path d="M30.11 26.7184C30.11 26.7184 36.522 27.1524 40.1452 28.8268C40.9544 29.1992 43.3624 32.3548 43.0768 36.7032C42.3544 47.6568 42.6428 53.7496 42.6428 53.7496C42.444 54.3096 40.3664 57.3336 34.632 57.8768C28.724 58.4368 25.392 57.8264 22.6144 55.3876C22.634 50.7368 22.7152 44.798 22.7656 40.808C22.8048 37.728 22.8524 35.768 23.2108 33.5896C23.4488 32.142 24.0508 29.9776 25.0448 29.4204C26.1645 28.7821 27.3264 28.2208 28.5224 27.7404C29.1167 27.5135 29.6573 27.1654 30.11 26.7184Z" fill="#FAFAFA"/>
<path d="M30.2163 27.0068C31.1207 27.0768 36.7683 27.5668 40.0163 29.0788C40.7555 29.4204 43.0627 32.4584 42.7827 36.6836C42.1079 46.9456 42.3207 53.0244 42.3487 53.702C42.2339 53.9512 41.7187 54.752 40.5371 55.5892C39.4647 56.3508 37.5635 57.3168 34.5927 57.5996C33.2319 57.7284 32.0559 57.7928 30.9975 57.7928C27.3799 57.7928 24.9411 57.034 22.8775 55.2728C22.8943 51.154 22.9615 45.9852 23.0091 42.2024L23.0259 40.822C23.0651 37.7924 23.1155 35.782 23.4683 33.6456C23.7483 31.9936 24.3727 30.1232 25.1651 29.6752C26.2743 29.0371 27.426 28.4758 28.6119 27.9952C29.1992 27.7684 29.738 27.4321 30.1995 27.004L30.2163 27.0068ZM30.0931 26.724C29.6405 27.171 29.0999 27.5191 28.5055 27.746C27.3095 28.2264 26.1477 28.7877 25.0279 29.426C24.0451 29.986 23.4319 32.1476 23.1939 33.5952C22.8355 35.7652 22.7879 37.7476 22.7487 40.8136C22.6983 44.8036 22.6171 50.7424 22.5975 55.3932C24.7451 57.2832 27.2343 58.0756 30.9975 58.0756C32.0895 58.0756 33.2879 58.0084 34.6179 57.8824C40.3523 57.3392 42.4299 54.3124 42.6287 53.7552C42.6287 53.7552 42.3487 47.6624 43.0627 36.7088C43.3427 32.3604 40.9403 29.2048 40.1311 28.8324C36.5079 27.1524 30.0959 26.724 30.0959 26.724H30.0931Z" fill="#E0E0E0"/>
<path d="M30.2359 14.3872C28.4971 16.3472 29.0599 18.66 29.6759 20.9784C30.4039 23.6188 30.4487 24.4728 31.9663 25.1336C31.6247 16.8428 34.2735 27.0012 40.9263 20.5556C42.1275 19.3908 42.2031 15.7956 40.7471 14.1492C38.6891 11.8364 33.6351 10.6856 30.2359 14.3872Z" fill="#37474F"/>
<path d="M29.8859 23.5824C31.0955 24.0864 31.6443 23.2548 31.6443 23.2548L30.5747 26.3348C30.5747 26.3348 29.8859 28.2444 31.4427 29.1656C35.7491 31.7528 34.7747 32.842 36.2307 34.0992C36.7235 33.4804 36.6591 30.7084 36.7375 29.9776L37.6811 27.0124C38.1731 27.0295 38.6656 27.0071 39.1539 26.9452C40.3075 26.7828 40.9599 25.9624 41.3239 24.7248C41.9035 22.7312 41.8167 19.724 41.1027 15.8292C39.8287 14.824 35.6063 14.6056 32.8763 16.2856C32.9743 18.576 32.3527 18.9484 32.3527 19.9256C32.3527 21.0316 32.2771 21.2864 31.9383 21.4348C31.5995 21.5832 31.2971 21.0652 31.1599 20.7404C30.9303 20.1804 30.7343 19.8388 30.1939 19.7044C29.6535 19.57 29.0487 19.6568 28.5531 20.3848C27.7859 21.516 28.9955 23.2184 29.8859 23.5824Z" fill="#FFA8A7"/>
<path d="M37.6812 27.0236C36.3176 26.9564 34.4024 26.2396 33.6296 25.5172C32.8568 24.7948 32.3528 23.3892 32.3528 23.3892C32.3885 24.3448 32.7345 25.2629 33.3384 26.0044C34.3464 27.2308 37.3956 27.9224 37.3956 27.9224L37.6812 27.0236Z" fill="#F28F8F"/>
<path d="M36.956 16.9324C36.9196 16.9324 36.8748 16.9548 36.872 16.9912C36.8692 17.0276 36.9084 17.0388 36.9364 17.0556C36.9833 17.0822 37.0282 17.1121 37.0708 17.1452C37.1155 17.1758 37.1528 17.216 37.18 17.2628C37.1954 17.2987 37.2066 17.3363 37.2136 17.3748C37.2224 17.4379 37.2271 17.5015 37.2276 17.5652C37.2276 17.6184 37.2724 17.6548 37.3228 17.61C37.3414 17.5931 37.3558 17.572 37.3648 17.5484C37.3947 17.4777 37.4072 17.4009 37.4012 17.3244C37.3956 17.282 37.3843 17.2405 37.3676 17.2012C37.3321 17.1216 37.2743 17.0539 37.2013 17.0062C37.1283 16.9585 37.0432 16.9329 36.956 16.9324ZM39.0392 17.0164C39.0439 16.9959 39.0432 16.9745 39.0372 16.9544C39.0311 16.9342 39.0199 16.916 39.0046 16.9016C38.9893 16.8871 38.9705 16.8769 38.95 16.872C38.9295 16.8671 38.9082 16.8677 38.888 16.8736C38.8189 16.907 38.7581 16.9551 38.7097 17.0147C38.6613 17.0742 38.6266 17.1436 38.608 17.218C38.5662 17.3184 38.5545 17.4288 38.5744 17.5357C38.5943 17.6426 38.6449 17.7414 38.72 17.82C38.7452 17.8424 38.7816 17.862 38.8068 17.8452C38.832 17.8284 38.8068 17.5652 38.8264 17.5064C38.8296 17.4077 38.8575 17.3115 38.9076 17.2264C38.9412 17.162 39.0168 17.1004 39.0392 17.0164ZM37.9052 16.5264C37.9004 16.523 37.895 16.5209 37.8892 16.5201C37.8835 16.5192 37.8776 16.5198 37.8721 16.5217C37.8666 16.5237 37.8617 16.5269 37.8577 16.5311C37.8537 16.5353 37.8508 16.5404 37.8492 16.546C37.8431 16.5715 37.8428 16.598 37.8481 16.6236C37.8534 16.6492 37.8643 16.6734 37.88 16.6944C37.9055 16.7478 37.927 16.803 37.9444 16.8596C37.9814 16.9728 38.0021 17.0906 38.006 17.2096C38.0084 17.3211 38.0009 17.4326 37.9836 17.5428C37.9668 17.6464 37.936 17.7472 37.9192 17.8508C37.9192 17.8508 37.9192 17.89 37.9416 17.8788C38.0232 17.7969 38.0856 17.6979 38.1244 17.589C38.1631 17.48 38.1772 17.3638 38.1656 17.2488C38.1643 17.1197 38.1445 16.9915 38.1068 16.868C38.0772 16.7357 38.0066 16.6162 37.9052 16.5264Z" fill="#F28F8F"/>
<path d="M35.4496 17.8956L36.6816 17.4224C36.7416 17.5905 36.7343 17.7752 36.6612 17.938C36.5882 18.1008 36.455 18.2291 36.2896 18.296C36.2083 18.3268 36.1216 18.3409 36.0347 18.3373C35.9478 18.3337 35.8626 18.3126 35.7841 18.2752C35.7056 18.2378 35.6355 18.1849 35.578 18.1196C35.5205 18.0544 35.4768 17.9782 35.4496 17.8956Z" fill="#37474F"/>
<path d="M39.364 17.2348L40.5568 17.8228C40.5224 17.9025 40.4722 17.9744 40.4092 18.0341C40.3461 18.0938 40.2716 18.14 40.1901 18.1698C40.1086 18.1997 40.0218 18.2126 39.9351 18.2079C39.8485 18.2031 39.7637 18.1807 39.686 18.142C39.526 18.0612 39.4032 17.9218 39.3433 17.7529C39.2833 17.5839 39.2907 17.3984 39.364 17.2348Z" fill="#37474F"/>
<path d="M36.6815 19.1668C36.5667 18.8868 36.4015 19.2816 36.0655 19.4216C35.7295 19.5616 35.3627 19.388 35.4775 19.6652C35.5625 19.7938 35.6895 19.8889 35.8369 19.9341C35.9843 19.9793 36.1428 19.9717 36.2852 19.9128C36.4276 19.8538 36.5451 19.7471 36.6174 19.611C36.6897 19.4749 36.7124 19.3178 36.6815 19.1668Z" fill="#263238"/>
<path d="M40.5651 19.4412C40.6351 19.1612 40.2851 19.3712 39.9183 19.29C39.5515 19.2088 39.3583 18.8532 39.2967 19.1444C39.2873 19.3 39.3333 19.454 39.4264 19.579C39.5196 19.7041 39.6539 19.7922 39.8058 19.8277C39.9576 19.8632 40.1171 19.8439 40.2561 19.7732C40.395 19.7024 40.5045 19.5849 40.5651 19.4412Z" fill="#263238"/>
<path d="M37.6364 18.4976L38.1348 22.1376L39.9492 21.7176C39.5488 20.662 38.4232 18.9792 37.6364 18.4976Z" fill="#F28F8F"/>
<path d="M36.8047 22.986C36.7205 23.0381 36.6496 23.109 36.5975 23.1932C36.4379 23.4564 36.6647 23.5908 36.9055 23.6132C37.1708 23.6381 37.429 23.7121 37.6671 23.8316C37.7689 23.9052 37.8915 23.9444 38.0171 23.9436C38.057 23.9378 38.0954 23.9242 38.13 23.9036C38.1646 23.8829 38.1947 23.8556 38.2187 23.8232C38.2552 23.7546 38.2689 23.6761 38.2579 23.5992C38.2338 23.4431 38.1695 23.296 38.0714 23.1722C37.9732 23.0485 37.8445 22.9525 37.6979 22.8936C37.5519 22.8396 37.3954 22.8198 37.2406 22.8358C37.0857 22.8518 36.9366 22.9032 36.8047 22.986Z" fill="#B16668"/>
<path d="M37.6671 23.8456C37.7233 23.8778 37.7812 23.9068 37.8407 23.9324C37.7818 23.6835 37.6411 23.4616 37.441 23.3022C37.241 23.1428 36.9933 23.0551 36.7375 23.0532C36.6816 23.0953 36.6342 23.1476 36.5975 23.2072C36.4379 23.4704 36.6647 23.6048 36.9055 23.6272C37.1708 23.6521 37.429 23.7261 37.6671 23.8456Z" fill="#F28F8F"/>
<path d="M35.7266 35.9108C34.4134 34.998 31.955 32.9848 29.9166 27.0096L29.1102 27.5696C29.1102 27.5696 30.4038 33.71 35.5306 36.8292L35.7266 35.9108Z" fill="#4F3D56"/>
<path d="M36.9811 35.7932C37.3591 35.278 38.2299 31.7696 37.3591 28.0008L38.0731 28.6868C38.8067 32.3688 38.0115 35.796 37.3255 36.8236L36.9811 35.7932Z" fill="#4F3D56"/>
<path d="M36.9223 37.6972C36.9223 37.6972 38.465 48.5388 38.5266 49.6028C38.5882 50.6668 36.9166 53.2428 36.6898 53.3856C36.463 53.5284 34.965 51.0056 34.9454 50.1656C34.9258 49.3256 36.029 37.6944 36.029 37.6944L36.9223 37.6972Z" fill="#4F3D56"/>
<path d="M36.9811 35.7932C36.5601 35.7163 36.126 35.757 35.7267 35.9108C35.4915 36.3336 35.4075 36.9888 35.5923 37.2968C35.7771 37.6048 36.1243 38.0808 36.5499 38.0612C36.9755 38.0416 37.3339 37.5012 37.3899 36.9832C37.4459 36.4232 36.9811 35.7932 36.9811 35.7932Z" fill="#4F3D56"/>
<path opacity="0.2" d="M36.9811 35.7932C36.5601 35.7163 36.126 35.757 35.7267 35.9108C35.4915 36.3336 35.4075 36.9888 35.5923 37.2968C35.7771 37.6048 36.1243 38.0808 36.5499 38.0612C36.9755 38.0416 37.3339 37.5012 37.3899 36.9832C37.4459 36.4232 36.9811 35.7932 36.9811 35.7932Z" fill="white"/>
<path d="M36.2111 34.1104C35.4579 33.2508 35.1947 30.6664 34.6375 30.2324C34.0803 29.7984 30.8463 27.8216 30.5411 26.402L30.8995 25.3688C30.5131 25.1924 29.9923 26.4272 28.5223 27.7404C28.5223 27.7404 28.3403 29.2412 29.4659 30.9464C30.7903 32.9596 31.9523 33.6344 31.9523 33.6344C31.9523 33.6344 33.5707 31.5456 33.8367 31.4644C34.1027 31.3832 35.3095 33.8024 36.2111 34.1104Z" fill="#F0F0F0"/>
<path d="M36.2111 34.1104C36.6143 33.4048 36.5499 30.504 36.6647 30.1204C36.9055 29.314 37.6139 27.228 37.6139 27.228C37.7326 27.3192 37.8398 27.4245 37.9331 27.5416C39.2715 29.272 39.2295 31.7696 38.8627 32.5396C38.4763 31.7192 37.5579 30.6608 37.3927 30.8596C37.2275 31.0584 36.9027 33.766 36.2111 34.1104Z" fill="#F0F0F0"/>
<path d="M31.2103 69.5416L31.8655 82.8808C31.8963 83.5276 31.4595 83.9224 30.9163 84.2808L29.5527 85.1656C29.4021 85.2871 29.2272 85.375 29.0398 85.4233C28.8524 85.4716 28.6569 85.4792 28.4663 85.4456C28.1999 85.3876 27.9427 85.2934 27.7019 85.1656C27.6927 85.1682 27.683 85.1682 27.6739 85.1656L27.5955 85.1236L12.8507 77.5636C12.3211 77.2924 11.8725 76.8864 11.55 76.3864C11.2275 75.8864 11.0426 75.3103 11.0139 74.716L10.4175 62.5696C10.4184 62.4179 10.4552 62.2686 10.5248 62.1338C10.5944 61.9991 10.6948 61.8826 10.8179 61.794L13.1419 60.296C13.2728 60.2206 13.4199 60.1775 13.5708 60.1702C13.7217 60.1629 13.8722 60.1916 14.0099 60.254L30.7259 68.8108C30.8585 68.8843 30.9702 68.9903 31.0507 69.1188C31.1387 69.244 31.1936 69.3895 31.2103 69.5416V69.5416Z" fill="#404258"/>
<path d="M31.2103 69.5416L31.8655 82.8808C31.8963 83.5276 31.4595 83.9224 30.9163 84.2808L29.5527 85.1656C29.4021 85.2871 29.2272 85.375 29.0398 85.4233C28.8524 85.4716 28.6569 85.4792 28.4663 85.4456C28.1999 85.3876 27.9427 85.2934 27.7019 85.1656V85.1656C28.2619 85.4008 28.7015 85.0872 28.6679 84.4264L28.0519 71.86C28.0324 71.6304 27.9543 71.4096 27.8251 71.2188L31.0619 69.1328C31.1438 69.255 31.1947 69.3953 31.2103 69.5416V69.5416Z" fill="#404258"/>
<path d="M28.0519 71.846C28.0295 71.6162 27.9532 71.395 27.8291 71.2004C27.7051 71.0058 27.5367 70.8432 27.3379 70.726L11.5291 62.606C10.9047 62.284 10.4091 62.606 10.4567 63.2976L11.0167 74.6684C11.0454 75.263 11.2303 75.8395 11.5528 76.3399C11.8752 76.8403 12.3239 77.2469 12.8535 77.5188L27.5983 85.0788C28.2227 85.4008 28.7183 85.0788 28.6707 84.3872L28.0519 71.846Z" fill="#404258"/>
<path d="M12.3886 60.7468L29.1494 69.4464C29.3855 69.5701 29.5854 69.7531 29.7292 69.9775C29.8731 70.2018 29.956 70.4598 29.9698 70.726L30.6446 84.446L30.4038 84.6028L29.7206 70.7288C29.7088 70.5063 29.6393 70.2908 29.5191 70.1033C29.3988 69.9158 29.2319 69.7627 29.0346 69.6592L12.1478 60.8952L12.3886 60.7468Z" fill="#4F3D56"/>
<path opacity="0.2" d="M29.729 69.9784C29.8733 70.2023 29.9563 70.46 29.9698 70.726L30.6446 84.446L30.4038 84.6028L29.7206 70.7288C29.7098 70.5065 29.6402 70.2911 29.519 70.1044L29.729 69.9784Z" fill="black"/>
<path opacity="0.2" d="M29.519 70.1128C29.3998 69.9241 29.2327 69.7705 29.0346 69.6676L12.1478 60.9036L12.3886 60.7468L29.1494 69.4464C29.3849 69.5713 29.5845 69.7544 29.729 69.9784" fill="black"/>
<path d="M18.2603 62.1692L18.3611 64.2328L17.5659 64.7396L17.4315 61.9956C17.4315 61.8556 17.5183 61.794 17.6443 61.8584L18.2603 62.1692Z" fill="#4F3D56"/>
<path opacity="0.4" d="M18.2603 62.1692L18.3611 64.2328L17.5659 64.7396L17.4315 61.9956C17.4315 61.8556 17.5183 61.794 17.6443 61.8584L18.2603 62.1692Z" fill="black"/>
<path d="M24.0366 63.9304L24.2018 67.2736L23.4458 67.758L22.9138 67.478L22.7766 64.734C22.7687 64.6577 22.743 64.5843 22.7017 64.5196C22.6604 64.455 22.6046 64.4009 22.5386 64.3616L18.4982 62.2896L17.6582 61.8584C17.5322 61.794 17.437 61.8584 17.4454 61.9956L17.5798 64.7396L17.045 64.4596L16.8798 61.1164C16.8784 61.1015 16.8784 61.0865 16.8798 61.0716C16.8864 61.0022 16.9079 60.9351 16.9426 60.8747C16.9774 60.8143 17.0248 60.7621 17.0814 60.7216L17.4006 60.5144C17.4685 60.4775 17.544 60.4567 17.6213 60.4538C17.6985 60.4509 17.7753 60.4659 17.8458 60.4976L23.7986 63.558C23.8651 63.5966 23.9215 63.6505 23.9629 63.7153C24.0043 63.7801 24.0296 63.8538 24.0366 63.9304Z" fill="#4F3D56"/>
<path opacity="0.2" d="M23.289 64.4148L23.4458 67.758L22.9138 67.478L22.7766 64.734C22.7687 64.6577 22.743 64.5843 22.7017 64.5196C22.6604 64.455 22.6046 64.4009 22.5386 64.3616L18.4982 62.2896L17.6582 61.8584C17.5322 61.794 17.437 61.8584 17.4454 61.9956L17.5798 64.7396L17.045 64.4596L16.8798 61.1164C16.8784 61.1015 16.8784 61.0865 16.8798 61.0716C16.8938 60.9624 16.9806 60.9204 17.0926 60.9764L23.0482 64.0368C23.1152 64.0765 23.172 64.1314 23.2138 64.197C23.2556 64.2627 23.2814 64.3373 23.289 64.4148Z" fill="black"/>
<path d="M20.4835 61.8528L23.0203 63.1576C23.0104 62.7609 22.8944 62.3742 22.6843 62.0376C22.4043 61.7576 21.2843 60.6376 20.9091 60.7524C20.7327 60.8056 20.5675 61.2928 20.4835 61.8528Z" fill="#F28F8F"/>
<path d="M20.4835 63.3256C20.5028 63.4043 20.5291 63.4811 20.5619 63.5552C20.8282 64.0483 21.1967 64.4788 21.6427 64.818C21.9534 64.7372 22.2349 64.5703 22.4547 64.3364L20.4835 63.3256Z" fill="#F28F8F"/>
<path d="M24.3895 30.6356C22.5471 31.4448 21.2115 32.8588 20.2595 35.8632C19.3075 38.8676 18.1427 42.4348 17.6779 45.5624C17.2131 48.69 16.8071 55.2224 16.6923 57.2468C16.6149 58.0629 16.5934 58.8833 16.6279 59.7024C16.7115 60.6292 16.8603 61.5489 17.0731 62.4548C17.1062 62.6686 17.1925 62.8707 17.3241 63.0424C17.4557 63.2141 17.6284 63.35 17.8263 63.4376C17.9385 63.4673 18.0473 63.5086 18.1511 63.5608C18.3387 63.6756 18.4311 63.9052 18.5795 64.062C18.7702 64.2327 19.018 64.3256 19.2739 64.3224C19.3887 64.3224 19.5035 64.3224 19.6155 64.3364C20.0327 64.398 20.3379 64.7676 20.7355 64.8964C21.0288 65.0238 21.3603 65.0318 21.6595 64.9188C21.8133 64.839 21.9595 64.7453 22.0963 64.6388C22.1719 64.5828 22.3763 64.3784 22.4407 64.3196C21.8807 64.37 21.4691 63.9052 21.2563 63.4796C21.0146 62.969 20.8794 62.4145 20.8587 61.85C20.8489 61.7168 20.868 61.5831 20.9147 61.458C20.9255 61.4272 20.9446 61.4001 20.9697 61.3793C20.9949 61.3586 21.0252 61.3451 21.0575 61.3404C21.1303 61.3404 21.1779 61.4104 21.2171 61.472C21.4395 61.915 21.7435 62.3121 22.1131 62.6424C22.2663 62.7838 22.4647 62.8662 22.6731 62.8748C22.7754 62.8758 22.8742 62.8379 22.9496 62.7687C23.025 62.6996 23.0713 62.6044 23.0791 62.5024C23.0699 62.421 23.0452 62.3421 23.0063 62.27C22.7243 61.6786 22.4966 61.0629 22.3259 60.4304C22.198 59.8372 21.9938 59.2631 21.7183 58.7224C21.4075 58.1624 20.6795 57.4008 20.7579 56.7624C20.8867 55.6676 22.9111 47.1248 22.9111 47.1248C22.9111 47.1248 25.3527 39.6488 25.9379 37.672C26.6715 35.2164 26.1591 32.0636 24.3895 30.6356Z" fill="#FFA8A7"/>
<path d="M25.0447 29.4204C22.0991 30.9212 21.3851 32.1056 20.5787 34.3372C19.8535 36.3336 18.2435 41.8076 17.8403 43.7564C17.1235 47.2424 16.7203 53.9092 16.7203 53.9092C16.7203 53.9092 17.0675 54.8668 18.8119 55.2868C20.5563 55.7068 21.2535 55.172 21.2535 55.172L23.2135 46.7048C23.2135 46.7048 26.2459 39.6768 26.4923 38.6856C27.0047 36.6948 27.4275 30.7616 25.0447 29.4204Z" fill="#E6E6E6"/>
<path d="M47.4671 23.826C47.5399 24.0136 47.5763 24.2124 47.6603 24.386C47.7429 24.5626 47.8514 24.7258 47.9823 24.8704C48.2534 25.1709 48.6267 25.3596 49.0295 25.3996C49.8891 25.4752 50.8439 24.7584 50.6479 23.826C50.6451 23.8044 50.6469 23.7825 50.6532 23.7617C50.6596 23.7409 50.6702 23.7216 50.6845 23.7052C50.6988 23.6888 50.7164 23.6756 50.7361 23.6665C50.7559 23.6574 50.7773 23.6526 50.7991 23.6524C51.3591 23.5964 51.6699 23.0308 51.6643 22.5044C51.6846 22.2236 51.6003 21.9453 51.4276 21.723C51.255 21.5007 51.0061 21.3501 50.7291 21.3004C50.6097 21.2813 50.4886 21.2747 50.3679 21.2808C50.2521 21.2994 50.1351 21.3097 50.0179 21.3116C49.7939 21.292 49.7715 21.0092 49.6763 20.8524C49.5778 20.6791 49.438 20.5329 49.2692 20.4269C49.1005 20.3208 48.9081 20.2582 48.7093 20.2446C48.5105 20.231 48.3114 20.2669 48.1298 20.349C47.9482 20.4311 47.7898 20.5569 47.6687 20.7152C47.4974 20.9641 47.395 21.2539 47.3719 21.5552C47.3719 21.5888 47.2851 21.6868 47.2655 21.6112C47.2121 21.3328 47.2491 21.0447 47.371 20.7889C47.4929 20.533 47.6933 20.3227 47.9431 20.1888C48.2095 20.0389 48.5154 19.9742 48.8197 20.0032C49.124 20.0322 49.4122 20.1536 49.6455 20.3512C49.7533 20.4397 49.8477 20.5434 49.9255 20.6592C49.967 20.7211 50.0026 20.7867 50.0319 20.8552C50.0487 20.8888 50.0823 21.0456 50.1103 21.0624C50.1649 21.0635 50.2194 21.0578 50.2727 21.0456C50.3427 21.0456 50.4155 21.0456 50.4855 21.0456C50.6468 21.0445 50.8076 21.0633 50.9643 21.1016C51.2628 21.1818 51.5253 21.3609 51.7089 21.6096C51.8925 21.8583 51.9863 22.1619 51.9751 22.4708C51.9928 22.7866 51.9031 23.099 51.7206 23.3573C51.5381 23.6156 51.2735 23.8045 50.9699 23.8932C51.0875 24.9236 50.0655 25.702 49.0911 25.6768C48.6065 25.6629 48.146 25.4623 47.8059 25.1168C47.5091 24.82 47.1787 24.316 47.2599 23.8792C47.2683 23.7812 47.4279 23.7224 47.4671 23.826Z" fill="#455A64"/>
<path d="M43.9615 22.4456C44.4071 22.3056 44.8659 22.2118 45.3307 22.1656L45.9299 22.0704C46.1392 22.027 46.3518 22.0017 46.5655 21.9948C46.6635 21.9948 46.6075 22.1292 46.5487 22.1516C46.3298 22.2245 46.1049 22.2779 45.8767 22.3112L45.2411 22.4232L44.6335 22.5212C44.4089 22.5673 44.1792 22.5842 43.9503 22.5716C43.8859 22.5744 43.9195 22.4652 43.9615 22.4456Z" fill="#455A64"/>
<path d="M44.3227 23.728C44.4026 23.7016 44.4853 23.6846 44.5691 23.6776C44.6643 23.6636 44.7567 23.6552 44.8491 23.6468L45.3391 23.6188C45.5043 23.6188 45.6667 23.6188 45.8319 23.602C46.0268 23.5828 46.2233 23.5875 46.4171 23.616C46.5095 23.6356 46.4171 23.7672 46.3695 23.7812C46.2084 23.8078 46.0456 23.8218 45.8823 23.8232L45.3727 23.8512L44.8687 23.882L44.6335 23.896C44.5211 23.9114 44.4071 23.9114 44.2947 23.896C44.2191 23.8624 44.2751 23.7476 44.3227 23.728Z" fill="#455A64"/>
</svg>
